<svg width="14" height="14" viewBox="0 0 14 14" fill="none" xmlns="http://www.w3.org/2000/svg">
<path d="M14 2.76627C14 1.21168 12.3041 0.251457 10.971 1.05129L3.91466 5.2851C2.61998 6.0619 2.61998 7.93826 3.91466 8.71507L10.971 12.9489C12.3041 13.7487 14 12.7885 14 11.2339V2.76627ZM4.94365 7.00008L12 2.76627V11.2339L4.94365 7.00008Z" fill="#20FFAF"/>
<path d="M1 1.00008C1.55228 1.00008 2 1.4478 2 2.00008V12.0001C2 12.5524 1.55228 13.0001 1 13.0001C0.447715 13.0001 0 12.5524 0 12.0001V2.00008C0 1.4478 0.447715 1.00008 1 1.00008Z" fill="#20FFAF"/>
</svg>
