<svg width="18" height="20" viewBox="0 0 18 20" fill="none" xmlns="http://www.w3.org/2000/svg">
<path d="M17.9241 3.61722C17.8753 3.49927 17.803 3.38877 17.7071 3.29289L14.7071 0.292893C14.3166 -0.0976311 13.6834 -0.0976311 13.2929 0.292893C12.9024 0.683417 12.9024 1.31658 13.2929 1.70711L14.5858 3L5 3C2.23858 3 0 5.23858 0 8V10C0 10.5523 0.447715 11 1 11C1.55228 11 2 10.5523 2 10L2 8C2 6.34315 3.34315 5 5 5L14.5858 5L13.2929 6.29289C12.9024 6.68342 12.9024 7.31658 13.2929 7.70711C13.6834 8.09763 14.3166 8.09763 14.7071 7.70711L17.7063 4.70787C17.7088 4.70544 17.7112 4.703 17.7136 4.70055C17.9045 4.50613 18 4.25307 18 4" fill="#20FFAF"/>
<path d="M17.9241 3.61722C17.9727 3.73425 17.9996 3.8625 18 3.997L17.9241 3.61722Z" fill="#20FFAF"/>
<path d="M0.0758793 15.6172C0.026986 15.7351 4.76837e-07 15.8644 4.76837e-07 16C4.76837e-07 16.2761 0.111929 16.5261 0.292894 16.7071L3.29289 19.7071C3.68342 20.0976 4.31658 20.0976 4.70711 19.7071C5.09763 19.3166 5.09763 18.6834 4.70711 18.2929L3.41421 17L13 17C15.7614 17 18 14.7614 18 12V10C18 9.44772 17.5523 9 17 9C16.4477 9 16 9.44772 16 10V12C16 13.6569 14.6569 15 13 15L3.41421 15L4.70711 13.7071C5.09763 13.3166 5.09763 12.6834 4.70711 12.2929C4.31658 11.9024 3.68342 11.9024 3.29289 12.2929L0.293159 15.2926" fill="#20FFAF"/>
<path d="M0.0758793 15.6172C0.124319 15.5001 0.195952 15.3904 0.290776 15.295L0.0758793 15.6172Z" fill="#20FFAF"/>
</svg>
