<svg width="20" height="20" viewBox="0 0 20 20" fill="none" xmlns="http://www.w3.org/2000/svg">
<path d="M11.4179 0.0915015C11.7727 0.254687 12 0.609485 12 1.00001V19C12 19.3905 11.7727 19.7453 11.4179 19.9085C11.0631 20.0717 10.6457 20.0134 10.3492 19.7593L3.63008 14H1C0.447715 14 0 13.5523 0 13V7.00001C0 6.44773 0.447715 6.00001 1 6.00001H3.63008L10.3492 0.240758C10.6457 -0.0133956 11.0631 -0.071684 11.4179 0.0915015ZM10 3.17423L4.65079 7.75927C4.46955 7.91462 4.23871 8.00001 4 8.00001H2V12H4C4.23871 12 4.46955 12.0854 4.65079 12.2408L10 16.8258V3.17423ZM14.2929 7.29291C14.6834 6.90238 15.3166 6.90238 15.7071 7.29291L17 8.5858L18.2929 7.29291C18.6834 6.90238 19.3166 6.90238 19.7071 7.29291C20.0976 7.68343 20.0976 8.3166 19.7071 8.70712L18.4142 10L19.7071 11.2929C20.0976 11.6834 20.0976 12.3166 19.7071 12.7071C19.3166 13.0976 18.6834 13.0976 18.2929 12.7071L17 11.4142L15.7071 12.7071C15.3166 13.0976 14.6834 13.0976 14.2929 12.7071C13.9024 12.3166 13.9024 11.6834 14.2929 11.2929L15.5858 10L14.2929 8.70712C13.9024 8.3166 13.9024 7.68343 14.2929 7.29291Z" fill="#20FFAF"/>
</svg>
