<svg width="19" height="20" viewBox="0 0 19 20" fill="none" xmlns="http://www.w3.org/2000/svg">
<path d="M11.4179 0.0915015C11.7727 0.254687 12 0.609485 12 1.00001V19C12 19.3905 11.7727 19.7453 11.4179 19.9085C11.0631 20.0717 10.6457 20.0134 10.3492 19.7593L3.63008 14H1C0.447715 14 0 13.5523 0 13V7.00001C0 6.44773 0.447715 6.00001 1 6.00001H3.63008L10.3492 0.240758C10.6457 -0.0133956 11.0631 -0.071684 11.4179 0.0915015ZM10 3.17423L4.65079 7.75927C4.46955 7.91462 4.23871 8.00001 4 8.00001H2V12H4C4.23871 12 4.46955 12.0854 4.65079 12.2408L10 16.8258V3.17423ZM15.2929 3.29291C15.6834 2.90238 16.3166 2.90238 16.7071 3.29291L16.7078 3.29362L16.7086 3.29438L16.7102 3.29605L16.7141 3.29996L16.724 3.31008C16.7315 3.31784 16.7409 3.32765 16.752 3.33951C16.7742 3.36322 16.8034 3.39513 16.8385 3.43526C16.9087 3.51549 17.0028 3.62871 17.1125 3.77501C17.3318 4.06748 17.6147 4.49329 17.8944 5.0528C18.4556 6.17509 19 7.82725 19 10C19 12.1728 18.4556 13.8249 17.8944 14.9472C17.6147 15.5067 17.3318 15.9326 17.1125 16.225C17.0028 16.3713 16.9087 16.4845 16.8385 16.5648C16.8034 16.6049 16.7742 16.6368 16.752 16.6605C16.7409 16.6724 16.7315 16.6822 16.724 16.69L16.7141 16.7001L16.7102 16.704L16.7086 16.7056L16.7078 16.7064L16.7071 16.7071C16.3166 17.0976 15.6834 17.0976 15.2929 16.7071C14.904 16.3183 14.9024 15.6889 15.2879 15.2979L15.2929 15.2926C15.3 15.2851 15.3138 15.2701 15.3334 15.2478C15.3725 15.203 15.4347 15.1287 15.5125 15.025C15.6682 14.8175 15.8853 14.4933 16.1056 14.0528C16.5444 13.1751 17 11.8272 17 10C17 8.17278 16.5444 6.82494 16.1056 5.94723C15.8853 5.50674 15.6682 5.18255 15.5125 4.97501C15.4347 4.87131 15.3725 4.79704 15.3334 4.75227C15.3138 4.72989 15.3 4.71493 15.2929 4.70739L15.2879 4.70208C14.9024 4.31117 14.904 3.68176 15.2929 3.29291ZM13.2929 6.29291C13.6834 5.90238 14.3166 5.90238 14.7071 6.29291L14.7085 6.29434L14.7101 6.29587L14.7134 6.29923L14.7211 6.30715L14.7408 6.32779C14.7557 6.34369 14.7741 6.36388 14.7955 6.38838C14.8384 6.43736 14.8934 6.50371 14.9563 6.58751C15.0818 6.75498 15.2397 6.99329 15.3944 7.3028C15.7056 7.92509 16 8.82725 16 10C16 11.1728 15.7056 12.0749 15.3944 12.6972C15.2397 13.0067 15.0818 13.2451 14.9563 13.4125C14.8934 13.4963 14.8384 13.5627 14.7955 13.6116C14.7741 13.6361 14.7557 13.6563 14.7408 13.6722L14.7211 13.6929L14.7134 13.7008L14.7101 13.7042L14.7085 13.7057L14.7078 13.7064C14.3173 14.0969 13.6834 14.0976 13.2929 13.7071C12.9057 13.32 12.9024 12.6943 13.2829 12.303C13.2843 12.3015 13.2868 12.2987 13.2904 12.2946C13.3022 12.2811 13.3253 12.2537 13.3562 12.2125C13.4182 12.13 13.5103 11.9933 13.6056 11.8028C13.7944 11.4251 14 10.8272 14 10C14 9.17278 13.7944 8.57494 13.6056 8.19723C13.5103 8.00674 13.4182 7.87005 13.3562 7.78751C13.3253 7.74631 13.3022 7.71892 13.2904 7.70539C13.2868 7.70132 13.2843 7.69852 13.2829 7.69701C12.9024 7.30574 12.9057 6.68008 13.2929 6.29291Z" fill="#20FFAF"/>
</svg>
