<svg width="16" height="16" viewBox="0 0 16 16" fill="none" xmlns="http://www.w3.org/2000/svg">
<path d="M10.0215 -3.7835e-10H15C15.5523 -3.7835e-10 16 0.447715 16 1C16 1.55228 15.5523 2 15 2H10.7543L7.32573 14H11C11.5523 14 12 14.4477 12 15C12 15.5523 11.5523 16 11 16H6.02369C6.00827 16.0004 5.99281 16.0004 5.9773 16H1C0.447715 16 0 15.5523 0 15C0 14.4477 0.447715 14 1 14H5.2457L8.67427 2H5C4.44772 2 4 1.55228 4 1C4 0.447715 4.44772 -3.7835e-10 5 -3.7835e-10H9.97749C9.99213 -0.000324668 10.0068 -0.000326372 10.0215 -3.7835e-10Z" fill="#20FFAF"/>
</svg>
