<svg width="24" height="24" viewBox="0 0 24 24" fill="none" xmlns="http://www.w3.org/2000/svg">
<path d="M14.0215 4.00024H19C19.5523 4.00024 20 4.44796 20 5.00024C20 5.55253 19.5523 6.00024 19 6.00024H14.7543L11.3257 18.0002H15C15.5523 18.0002 16 18.448 16 19.0002C16 19.5525 15.5523 20.0002 15 20.0002H10.0237C10.0083 20.0006 9.99281 20.0006 9.9773 20.0002H5C4.44772 20.0002 4 19.5525 4 19.0002C4 18.448 4.44772 18.0002 5 18.0002H9.2457L12.6743 6.00024H9C8.44772 6.00024 8 5.55253 8 5.00024C8 4.44796 8.44772 4.00024 9 4.00024H13.9775C13.9921 3.99992 14.0068 3.99992 14.0215 4.00024Z" fill="white"/>
</svg>
