<svg width="16" height="12" viewBox="0 0 16 12" fill="none" xmlns="http://www.w3.org/2000/svg">
<path d="M0 1C0 0.447715 0.447715 0 1 0H2C2.55228 0 3 0.447715 3 1C3 1.55228 2.55228 2 2 2H1C0.447715 2 0 1.55228 0 1ZM5 1C5 0.447715 5.44772 0 6 0H15C15.5523 0 16 0.447715 16 1C16 1.55228 15.5523 2 15 2H6C5.44772 2 5 1.55228 5 1ZM0 6C0 5.44772 0.447715 5 1 5H2C2.55228 5 3 5.44772 3 6C3 6.55228 2.55228 7 2 7H1C0.447715 7 0 6.55228 0 6ZM5 6C5 5.44772 5.44772 5 6 5H15C15.5523 5 16 5.44772 16 6C16 6.55228 15.5523 7 15 7H6C5.44772 7 5 6.55228 5 6ZM0 11C0 10.4477 0.447715 10 1 10H2C2.55228 10 3 10.4477 3 11C3 11.5523 2.55228 12 2 12H1C0.447715 12 0 11.5523 0 11ZM5 11C5 10.4477 5.44772 10 6 10H15C15.5523 10 16 10.4477 16 11C16 11.5523 15.5523 12 15 12H6C5.44772 12 5 11.5523 5 11Z" fill="#20FFAF"/>
</svg>
