<svg width="24" height="24" viewBox="0 0 24 24" fill="none" xmlns="http://www.w3.org/2000/svg">
<path d="M12 5C9.5711 5 8 6.53984 8 8C8 8.80409 8.28058 9.36198 8.8649 9.8176C9.49617 10.3098 10.5296 10.7149 12.0894 11H19C19.5523 11 20 11.4477 20 12C20 12.5523 19.5523 13 19 13H16.811C17.5989 13.7943 18 14.8031 18 16C18 18.9581 15.0939 21 12 21C10.0022 21 8.17336 20.1855 7.06427 18.851C6.71127 18.4263 6.76942 17.7958 7.19416 17.4428C7.6189 17.0898 8.24939 17.1479 8.6024 17.5727C9.28484 18.3938 10.5196 19 12 19C14.4289 19 16 17.4602 16 16C16 15.1959 15.7194 14.638 15.1351 14.1824C14.5038 13.6902 13.4704 13.2851 11.9106 13H5C4.44772 13 4 12.5523 4 12C4 11.4477 4.44772 11 5 11H7.18902C6.40111 10.2057 6 9.1969 6 8C6 5.04188 8.90606 3 12 3C13.4774 3 14.8517 3.44372 15.9155 4.20546C16.3645 4.52698 16.4679 5.15165 16.1464 5.6007C15.8249 6.04974 15.2002 6.15312 14.7512 5.83159C14.0458 5.32655 13.0837 5 12 5Z" fill="white"/>
</svg>
