<svg width="16" height="18" viewBox="0 0 16 18" fill="none" xmlns="http://www.w3.org/2000/svg">
<path d="M8 2C5.5711 2 4 3.53984 4 5C4 5.80409 4.28058 6.36198 4.8649 6.8176C5.49617 7.30983 6.52959 7.71491 8.08939 8H15C15.5523 8 16 8.44771 16 9C16 9.55229 15.5523 10 15 10H12.811C13.5989 10.7943 14 11.8031 14 13C14 15.9581 11.0939 18 8 18C6.00216 18 4.17336 17.1855 3.06427 15.851C2.71127 15.4263 2.76942 14.7958 3.19416 14.4428C3.6189 14.0898 4.24939 14.1479 4.6024 14.5727C5.28484 15.3938 6.51956 16 8 16C10.4289 16 12 14.4602 12 13C12 12.1959 11.7194 11.638 11.1351 11.1824C10.5038 10.6902 9.47041 10.2851 7.9106 10H1C0.447715 10 0 9.55229 0 9C0 8.44771 0.447715 8 1 8H3.18902C2.40111 7.20569 2 6.1969 2 5C2 2.04188 4.90606 0 8 0C9.47744 0 10.8517 0.443723 11.9155 1.20546C12.3645 1.52698 12.4679 2.15165 12.1464 2.6007C11.8249 3.04974 11.2002 3.15312 10.7512 2.83159C10.0458 2.32655 9.08374 2 8 2Z" fill="#20FFAF"/>
</svg>
