<svg width="14" height="16" viewBox="0 0 14 16" fill="none" xmlns="http://www.w3.org/2000/svg">
<path d="M7 0C7.26522 5.96046e-08 7.51957 0.105357 7.70711 0.292893L13.7071 6.29289C14.0976 6.68342 14.0976 7.31658 13.7071 7.70711C13.3166 8.09763 12.6834 8.09763 12.2929 7.70711L8 3.41421L8 15C8 15.5523 7.55228 16 7 16C6.44772 16 6 15.5523 6 15L6 3.41421L1.70711 7.70711C1.31658 8.09763 0.683417 8.09763 0.292893 7.70711C-0.0976311 7.31658 -0.097631 6.68342 0.292893 6.29289L6.29289 0.292893C6.48043 0.105357 6.73479 0 7 0Z" fill="white"/>
</svg>
