<svg width="14" height="14" viewBox="0 0 14 14" fill="none" xmlns="http://www.w3.org/2000/svg">
<path d="M0.292894 0.292893C0.683418 -0.0976311 1.31658 -0.097631 1.70711 0.292893L7 5.58579L12.2929 0.292895C12.6834 -0.0976291 13.3166 -0.097629 13.7071 0.292895C14.0976 0.68342 14.0976 1.31658 13.7071 1.70711L7.70711 7.70711C7.31658 8.09763 6.68342 8.09763 6.29289 7.70711L0.292894 1.70711C-0.0976306 1.31658 -0.0976305 0.683417 0.292894 0.292893ZM0.292893 6.29289C0.683418 5.90237 1.31658 5.90237 1.70711 6.29289L7 11.5858L12.2929 6.29289C12.6834 5.90237 13.3166 5.90237 13.7071 6.29289C14.0976 6.68342 14.0976 7.31658 13.7071 7.70711L7.70711 13.7071C7.31658 14.0976 6.68342 14.0976 6.29289 13.7071L0.292893 7.70711C-0.0976311 7.31658 -0.097631 6.68342 0.292893 6.29289Z" fill="white"/>
</svg>
