<svg width="14" height="14" viewBox="0 0 14 14" fill="none" xmlns="http://www.w3.org/2000/svg">
<path d="M6.29289 0.292893C6.68342 -0.0976311 7.31658 -0.0976311 7.70711 0.292893L13.7071 6.29289C14.0976 6.68342 14.0976 7.31658 13.7071 7.70711C13.3166 8.09763 12.6834 8.09763 12.2929 7.70711L7 2.41421L1.70711 7.70711C1.31658 8.09763 0.683417 8.09763 0.292893 7.70711C-0.0976311 7.31658 -0.0976311 6.68342 0.292893 6.29289L6.29289 0.292893ZM7 8.41421L1.70711 13.7071C1.31658 14.0976 0.683417 14.0976 0.292893 13.7071C-0.0976311 13.3166 -0.0976309 12.6834 0.292893 12.2929L6.29289 6.29289C6.68342 5.90237 7.31658 5.90237 7.70711 6.29289L13.7071 12.2929C14.0976 12.6834 14.0976 13.3166 13.7071 13.7071C13.3166 14.0976 12.6834 14.0976 12.2929 13.7071L7 8.41421Z" fill="white"/>
</svg>
