<svg width="14" height="14" viewBox="0 0 14 14" fill="none" xmlns="http://www.w3.org/2000/svg">
<path d="M6.29289 0.292893C6.68342 -0.0976311 7.31658 -0.097631 7.70711 0.292893L13.7071 6.29289C14.0976 6.68342 14.0976 7.31658 13.7071 7.70711L7.70711 13.7071C7.31658 14.0976 6.68342 14.0976 6.29289 13.7071C5.90237 13.3166 5.90237 12.6834 6.29289 12.2929L11.5858 7L6.29289 1.70711C5.90237 1.31658 5.90237 0.683417 6.29289 0.292893ZM0.292894 0.292893C0.683419 -0.097631 1.31658 -0.097631 1.70711 0.292893L7.70711 6.29289C7.89464 6.48043 8 6.73478 8 7C8 7.26522 7.89464 7.51957 7.70711 7.70711L1.70711 13.7071C1.31658 14.0976 0.683417 14.0976 0.292893 13.7071C-0.0976311 13.3166 -0.0976311 12.6834 0.292893 12.2929L5.58579 7L0.292894 1.70711C-0.0976301 1.31658 -0.0976301 0.683417 0.292894 0.292893Z" fill="white"/>
</svg>
