<svg width="20" height="20" viewBox="0 0 20 20" fill="none" xmlns="http://www.w3.org/2000/svg">
<path d="M8 2C5.79086 2 4 3.79086 4 6C4 8.20914 5.79086 10 8 10C10.2091 10 12 8.20914 12 6C12 3.79086 10.2091 2 8 2ZM2 6C2 2.68629 4.68629 0 8 0C11.3137 0 14 2.68629 14 6C14 9.31371 11.3137 12 8 12C4.68629 12 2 9.31371 2 6ZM19.6644 9.25259C20.0771 9.61951 20.1143 10.2516 19.7474 10.6644L17.0807 13.6644C16.891 13.8779 16.619 14 16.3333 14C16.0477 14 15.7757 13.8779 15.5859 13.6644L14.2526 12.1644C13.8857 11.7516 13.9229 11.1195 14.3356 10.7526C14.7484 10.3857 15.3805 10.4229 15.7474 10.8356L16.3333 11.4948L18.2526 9.33564C18.6195 8.92285 19.2516 8.88567 19.6644 9.25259ZM4.5 16C3.24054 16 2 17.2135 2 19C2 19.5523 1.55228 20 1 20C0.447715 20 0 19.5523 0 19C0 16.3682 1.89347 14 4.5 14H11.5C14.1065 14 16 16.3682 16 19C16 19.5523 15.5523 20 15 20C14.4477 20 14 19.5523 14 19C14 17.2135 12.7595 16 11.5 16H4.5Z" fill="#20FFAF"/>
</svg>
