<svg width="24" height="24" viewBox="0 0 24 24" fill="none" xmlns="http://www.w3.org/2000/svg">
<mask id="path-1-inside-1_2119_741" fill="white">
<path fill-rule="evenodd" clip-rule="evenodd" d="M12 0C5.37258 0 0 5.37258 0 12C0 18.6274 5.37258 24 12 24C18.6274 24 24 18.6274 24 12C24 5.37258 18.6274 0 12 0ZM12 2C6.47715 2 2 6.47715 2 12C2 17.5228 6.47715 22 12 22C17.5228 22 22 17.5228 22 12C22 6.47715 17.5228 2 12 2Z"/>
</mask>
<path fill-rule="evenodd" clip-rule="evenodd" d="M12 0C5.37258 0 0 5.37258 0 12C0 18.6274 5.37258 24 12 24C18.6274 24 24 18.6274 24 12C24 5.37258 18.6274 0 12 0ZM12 2C6.47715 2 2 6.47715 2 12C2 17.5228 6.47715 22 12 22C17.5228 22 22 17.5228 22 12C22 6.47715 17.5228 2 12 2Z" fill="#2C2543"/>
<path d="M2 12C2 6.47715 6.47715 2 12 2V-2C4.26801 -2 -2 4.26801 -2 12H2ZM12 22C6.47715 22 2 17.5228 2 12H-2C-2 19.732 4.26801 26 12 26V22ZM22 12C22 17.5228 17.5228 22 12 22V26C19.732 26 26 19.732 26 12H22ZM12 2C17.5228 2 22 6.47715 22 12H26C26 4.26801 19.732 -2 12 -2V2ZM4 12C4 7.58172 7.58172 4 12 4V0C5.37258 0 0 5.37258 0 12H4ZM12 20C7.58172 20 4 16.4183 4 12H0C0 18.6274 5.37258 24 12 24V20ZM20 12C20 16.4183 16.4183 20 12 20V24C18.6274 24 24 18.6274 24 12H20ZM12 4C16.4183 4 20 7.58172 20 12H24C24 5.37258 18.6274 0 12 0V4Z" fill="#2C2543" mask="url(#path-1-inside-1_2119_741)"/>
<rect x="4" y="4" width="16" height="16" rx="8" fill="#2C2543"/>
</svg>
