<svg width="24" height="24" viewBox="0 0 24 24" fill="none" xmlns="http://www.w3.org/2000/svg">
<path d="M2 6C2 4.89543 2.89543 4 4 4H9C9.26522 4 9.51957 4.10536 9.70711 4.29289L11.4142 6H20C21.1046 6 22 6.89543 22 8V18C22 19.1046 21.1046 20 20 20H4C2.89543 20 2 19.1046 2 18V6ZM8.58579 6L4 6V18H20V8H11C10.7348 8 10.4804 7.89464 10.2929 7.70711L8.58579 6ZM12 9.5C12.5523 9.5 13 9.94772 13 10.5V13.0858L13.2929 12.7929C13.6834 12.4024 14.3166 12.4024 14.7071 12.7929C15.0976 13.1834 15.0976 13.8166 14.7071 14.2071L12.7071 16.2071C12.3166 16.5976 11.6834 16.5976 11.2929 16.2071L9.29289 14.2071C8.90237 13.8166 8.90237 13.1834 9.29289 12.7929C9.68342 12.4024 10.3166 12.4024 10.7071 12.7929L11 13.0858V10.5C11 9.94772 11.4477 9.5 12 9.5Z" fill="#20FFAF"/>
</svg>
