<svg width="24" height="24" viewBox="0 0 24 24" fill="none" xmlns="http://www.w3.org/2000/svg">
<path d="M19.0001 10C19.0001 6.77579 16.8203 4.06072 13.854 3.24812C13.5568 2.51616 12.8387 2 12.0001 2C11.1615 2 10.4434 2.51616 10.1462 3.24812C9.58616 3.40155 9.05411 3.62281 8.55948 3.90252L10.0511 5.39411C10.65 5.14035 11.3087 5 12.0001 5C14.7615 5 17.0001 7.23858 17.0001 10V12.3431L19.0001 14.3431V10Z" fill="#20FFAF"/>
<path d="M3.1754 17.4343L5.00011 14.6972V9.99999C5.00011 8.94987 5.23134 7.95375 5.64568 7.05978L3.293 4.70711C2.90248 4.31658 2.90248 3.68342 3.293 3.29289C3.68352 2.90237 4.31669 2.90237 4.70721 3.29289L20.7072 19.2929C21.0977 19.6834 21.0977 20.3166 20.7072 20.7071C20.3167 21.0976 19.6835 21.0976 19.293 20.7071L17.5859 19H15.4647C15.222 20.6961 13.7633 22 12.0001 22C10.2369 22 8.77817 20.6961 8.53555 19H4.01307C3.91566 19.0014 3.81754 18.9885 3.72197 18.9608C3.59613 18.9244 3.48049 18.864 3.38036 18.7849C3.1668 18.616 3.02379 18.3618 3.00279 18.0738C2.99361 17.9509 3.00701 17.8258 3.04431 17.7051C3.07435 17.6076 3.11889 17.5165 3.1754 17.4343ZM5.86862 17H15.5859L7.19586 8.60997C7.06841 9.05126 7.00011 9.51765 7.00011 9.99999V15C7.00011 15.1974 6.94167 15.3904 6.83216 15.5547L5.86862 17ZM10.5855 19C10.7914 19.5826 11.347 20 12.0001 20C12.6532 20 13.2088 19.5826 13.4148 19H10.5855Z" fill="#20FFAF"/>
</svg>
