<svg width="24" height="24" viewBox="0 0 24 24" fill="none" xmlns="http://www.w3.org/2000/svg">
    <path d="M4.1421 3.99989L6.00913 16.1356C6.02271 16.2357 6.05113 16.3312 6.0921 16.4197C6.21543 16.6859 6.45246 16.8888 6.74088 16.966C6.82899 16.9897 6.92133 17.0015 7.01578 16.9999H18C18.4416 16.9999 18.8309 16.7102 18.9578 16.2872L21.9578 6.28724C22.0487 5.98447 21.991 5.65657 21.8023 5.40296C21.6136 5.14935 21.3161 4.99989 21 4.99989H6.31948L5.99058 2.86209C5.97826 2.7727 5.95413 2.68709 5.91981 2.60687C5.85751 2.4608 5.76213 2.33426 5.64429 2.23508C5.53497 2.14289 5.40561 2.07372 5.26367 2.03502C5.17434 2.01056 5.0806 1.9983 4.9847 1.99989H3C2.44772 1.99989 2 2.44761 2 2.99989C2 3.55218 2.44772 3.99989 3 3.99989H4.1421ZM7.85794 14.9999L6.62717 6.99989H19.656L17.256 14.9999H7.85794Z" fill="#20FFAF"/>
    <path d="M10 19.9999C10 21.1045 9.10457 21.9999 8 21.9999C6.89543 21.9999 6 21.1045 6 19.9999C6 18.8953 6.89543 17.9999 8 17.9999C9.10457 17.9999 10 18.8953 10 19.9999Z" fill="#20FFAF"/>
    <path d="M19 19.9999C19 21.1045 18.1046 21.9999 17 21.9999C15.8954 21.9999 15 21.1045 15 19.9999C15 18.8953 15.8954 17.9999 17 17.9999C18.1046 17.9999 19 18.8953 19 19.9999Z" fill="#20FFAF"/>
</svg>