<svg width="24" height="24" viewBox="0 0 24 24" fill="none" xmlns="http://www.w3.org/2000/svg">
    <path d="M6.00913 16.1356L4.1421 3.99989H3C2.44772 3.99989 2 3.55218 2 2.99989C2 2.44761 2.44772 1.99989 3 1.99989H4.9847C5.0806 1.9983 5.17434 2.01056 5.26367 2.03502C5.40561 2.07372 5.53497 2.14289 5.64429 2.23508C5.76213 2.33426 5.85751 2.4608 5.91981 2.60687C5.95413 2.68709 5.97826 2.7727 5.99058 2.86209L6.31948 4.99989H14V6.99989H6.62717L7.85794 14.9999H17.256L18.756 9.99989H20.844L18.9578 16.2872C18.8309 16.7102 18.4416 16.9999 18 16.9999H7.01578C6.92133 17.0015 6.82899 16.9897 6.74088 16.966C6.59074 16.9258 6.45453 16.8516 6.34104 16.7521C6.2371 16.6611 6.15157 16.5484 6.0921 16.4197C6.05113 16.3312 6.02271 16.2357 6.00913 16.1356Z" fill="#20FFAF"/>
    <path d="M10 19.9999C10 21.1045 9.10457 21.9999 8 21.9999C6.89543 21.9999 6 21.1045 6 19.9999C6 18.8953 6.89543 17.9999 8 17.9999C9.10457 17.9999 10 18.8953 10 19.9999Z" fill="#20FFAF"/>
    <path d="M19 19.9999C19 21.1045 18.1046 21.9999 17 21.9999C15.8954 21.9999 15 21.1045 15 19.9999C15 18.8953 15.8954 17.9999 17 17.9999C18.1046 17.9999 19 18.8953 19 19.9999Z" fill="#20FFAF"/>
    <path d="M19 1.99989C19.5523 1.99989 20 2.44761 20 2.99989V3.99989H21C21.5523 3.99989 22 4.44761 22 4.99989C22 5.55218 21.5523 5.99989 21 5.99989H20V6.99989C20 7.55218 19.5523 7.99989 19 7.99989C18.4477 7.99989 18 7.55218 18 6.99989V5.99989H17C16.4477 5.99989 16 5.55218 16 4.99989C16 4.44761 16.4477 3.99989 17 3.99989H18V2.99989C18 2.44761 18.4477 1.99989 19 1.99989Z" fill="#20FFAF"/>
</svg>