<svg width="20" height="20" viewBox="0 0 20 20" fill="none" xmlns="http://www.w3.org/2000/svg">
<path d="M15.5019 0.13509C15.8102 0.314012 16 0.64353 16 1V5C17.1848 5 18.2502 5.51635 18.9812 6.33309C19.614 7.0401 20 7.97617 20 9C20 10.0238 19.614 10.9599 18.9812 11.6669C18.2502 12.4836 17.1848 13 16 13V17C16 17.3565 15.8102 17.686 15.5019 17.8649C15.1936 18.0438 14.8134 18.0451 14.5039 17.8682L8 14.1518V19C8 19.5523 7.55228 20 7 20H3C2.44772 20 2 19.5523 2 19V14C0.89543 14 0 13.1046 0 12V6C0 4.89543 0.895431 4 2 4H7.73444L14.5039 0.131757C14.8134 -0.045102 15.1936 -0.043832 15.5019 0.13509ZM8 12C8.17403 12 8.34504 12.0454 8.49614 12.1318L14 15.2768V2.72318L8.49614 5.86824C8.34504 5.95458 8.17403 6 8 6H2V12H8ZM4 14V18H6V14H4ZM16 11C16.5922 11 17.1233 10.7438 17.491 10.3331C17.8083 9.97858 18 9.51288 18 9C18 8.48712 17.8083 8.02142 17.491 7.66691C17.1233 7.25615 16.5922 7 16 7V11Z" fill="#20FFAF"/>
</svg>
