<svg width="20" height="20" viewBox="0 0 20 20" fill="none" xmlns="http://www.w3.org/2000/svg">
<path d="M4.00913 14.1356L2.1421 1.99989H1C0.447715 1.99989 0 1.55218 0 0.999893C0 0.447608 0.447715 -0.000106811 1 -0.000106811H2.9847C3.0806 -0.00169715 3.17434 0.0105565 3.26367 0.0350207C3.40561 0.0737171 3.53497 0.142894 3.64429 0.235085C3.76213 0.334265 3.85751 0.460798 3.91981 0.606874C3.95413 0.68709 3.97826 0.772703 3.99058 0.862085L4.31948 2.99989H12V4.99989H4.62717L5.85794 12.9999H15.256L16.756 7.99989H18.844L16.9578 14.2872C16.8309 14.7102 16.4416 14.9999 16 14.9999H5.01578C4.92133 15.0015 4.82899 14.9897 4.74088 14.966C4.59074 14.9258 4.45453 14.8516 4.34104 14.7521C4.2371 14.6611 4.15157 14.5484 4.0921 14.4197C4.05113 14.3312 4.02271 14.2357 4.00913 14.1356Z" fill="#20FFAF"/>
<path d="M8 17.9999C8 19.1045 7.10457 19.9999 6 19.9999C4.89543 19.9999 4 19.1045 4 17.9999C4 16.8953 4.89543 15.9999 6 15.9999C7.10457 15.9999 8 16.8953 8 17.9999Z" fill="#20FFAF"/>
<path d="M17 17.9999C17 19.1045 16.1046 19.9999 15 19.9999C13.8954 19.9999 13 19.1045 13 17.9999C13 16.8953 13.8954 15.9999 15 15.9999C16.1046 15.9999 17 16.8953 17 17.9999Z" fill="#20FFAF"/>
<path d="M17 -0.000106811C17.5523 -0.000106811 18 0.447608 18 0.999893V1.99989H19C19.5523 1.99989 20 2.44761 20 2.99989C20 3.55218 19.5523 3.99989 19 3.99989H18V4.99989C18 5.55218 17.5523 5.99989 17 5.99989C16.4477 5.99989 16 5.55218 16 4.99989V3.99989H15C14.4477 3.99989 14 3.55218 14 2.99989C14 2.44761 14.4477 1.99989 15 1.99989H16V0.999893C16 0.447608 16.4477 -0.000106811 17 -0.000106811Z" fill="#20FFAF"/>
</svg>
