<svg width="20" height="20" viewBox="0 0 20 20" fill="none" xmlns="http://www.w3.org/2000/svg">
<path d="M10 2C5.58172 2 2 5.58172 2 10C2 14.4183 5.58172 18 10 18C14.4183 18 18 14.4183 18 10C18 5.58172 14.4183 2 10 2ZM0 10C0 4.47715 4.47715 0 10 0C15.5228 0 20 4.47715 20 10C20 15.5228 15.5228 20 10 20C4.47715 20 0 15.5228 0 10ZM10.2929 5.29289C10.6834 4.90237 11.3166 4.90237 11.7071 5.29289L15.7071 9.29289C16.0976 9.68342 16.0976 10.3166 15.7071 10.7071L11.7071 14.7071C11.3166 15.0976 10.6834 15.0976 10.2929 14.7071C9.90237 14.3166 9.90237 13.6834 10.2929 13.2929L12.5858 11H5C4.44772 11 4 10.5523 4 10C4 9.44771 4.44772 9 5 9H12.5858L10.2929 6.70711C9.90237 6.31658 9.90237 5.68342 10.2929 5.29289Z" fill="#20FFAF"/>
</svg>
