<svg width="22" height="20" viewBox="0 0 22 20" fill="none" xmlns="http://www.w3.org/2000/svg">
<path d="M10.9999 11.9999C10.4476 11.9999 9.99993 11.5522 9.99993 10.9999V7.99988C9.99993 7.4476 10.4476 6.99988 10.9999 6.99988C11.5522 6.99988 11.9999 7.4476 11.9999 7.99988V10.9999C11.9999 11.5522 11.5522 11.9999 10.9999 11.9999Z" fill="#20FFAF"/>
<path d="M9.49993 14.4999C9.49993 13.6715 10.1715 12.9999 10.9999 12.9999C11.8284 12.9999 12.4999 13.6715 12.4999 14.4999C12.4999 15.3283 11.8284 15.9999 10.9999 15.9999C10.1715 15.9999 9.49993 15.3283 9.49993 14.4999Z" fill="#20FFAF"/>
<path d="M9.23009 1.21548C9.97992 -0.209192 12.0199 -0.209201 12.7698 1.21548L21.1134 17.0684C21.8144 18.4002 20.8486 19.9999 19.3436 19.9999H2.65629C1.15127 19.9999 0.185495 18.4002 0.886453 17.0684L9.23009 1.21548ZM19.3436 17.9999L10.9999 2.14697L2.65629 17.9999L19.3436 17.9999Z" fill="#20FFAF"/>
</svg>
