<svg width="24" height="24" viewBox="0 0 24 24" fill="none" xmlns="http://www.w3.org/2000/svg">
<path d="M16 5C17.6569 5 19 6.34315 19 8C19 8.57574 18.8378 9.11361 18.5566 9.5704C17.9735 9.29534 17.3389 9.11146 16.6713 9.03713C16.1931 7.65551 15.2247 6.50285 13.9738 5.78759C14.5076 5.29848 15.219 5 16 5ZM11.9451 5.07399C11.6373 5.02529 11.3216 5 11 5C7.68629 5 5 7.68629 5 11C5 11.1378 5.00466 11.2746 5.01385 11.4103C3.24073 12.1787 2 13.9436 2 16C2 18.7614 4.23858 21 7 21H16C19.3137 21 22 18.3137 22 15C22 13.3213 21.3106 11.8037 20.1996 10.7147C20.706 9.93293 21 9.00081 21 8C21 5.23858 18.7614 3 16 3C14.3312 3 12.8533 3.81756 11.9451 5.07399ZM7 11C7 8.79086 8.79086 7 11 7C12.9343 7 14.5499 8.37395 14.9201 10.1997C15.0161 10.6731 15.4368 11.0102 15.9198 11.0008C15.9465 11.0003 15.9732 11 16 11C18.2091 11 20 12.7909 20 15C20 17.2091 18.2091 19 16 19H7C5.34315 19 4 17.6569 4 16C4 14.571 5.00015 13.3732 6.33958 13.0727C6.8783 12.9519 7.21716 12.4173 7.09656 11.8785C7.03348 11.5967 7 11.3029 7 11Z" fill="#20FFAF"/>
</svg>
