<svg width="24" height="24" viewBox="0 0 24 24" fill="none" xmlns="http://www.w3.org/2000/svg">
<path d="M12.6508 2.24082C12.2763 1.91983 11.7233 1.92016 11.3488 2.24115L11.2604 2.31832C11.2055 2.36663 11.1266 2.43689 11.0269 2.52738C10.8277 2.70828 10.5454 2.97045 10.2077 3.30013C9.5335 3.95829 8.63218 4.89153 7.72807 5.98937C6.8264 7.08425 5.90543 8.36273 5.206 9.71164C4.51106 11.0519 4 12.5279 4 14.0001C4 18.4184 7.58172 22.0001 12 22.0001C16.4183 22.0001 20 18.4184 20 14.0001C20 12.5279 19.4889 11.0519 18.794 9.71164C18.0946 8.36273 17.1736 7.08425 16.2719 5.98937C15.3678 4.89153 14.4665 3.95829 13.7923 3.30013C13.4546 2.97045 13.1723 2.70828 12.9731 2.52738L12.6508 2.24082ZM6 14.0001C6 12.9722 6.36394 11.8233 6.9815 10.6323C7.59457 9.44993 8.4236 8.29091 9.27193 7.26079C10.1178 6.23363 10.9665 5.35437 11.6048 4.73128C11.7483 4.59119 11.8809 4.46434 12 4.352C12.1191 4.46434 12.2517 4.59119 12.3952 4.73128C13.0335 5.35437 13.8822 6.23363 14.7281 7.26079C15.5764 8.29091 16.4054 9.44993 17.0185 10.6323C17.6361 11.8233 18 12.9722 18 14.0001C18 17.3138 15.3137 20.0001 12 20.0001C8.68629 20.0001 6 17.3138 6 14.0001Z" fill="#20FFAF"/>
<path d="M8.35964 14.0416C7.8303 14.1992 7.52889 14.756 7.68643 15.2853C8.11874 16.7379 9.26213 17.8813 10.7147 18.3136C11.244 18.4711 11.8009 18.1697 11.9584 17.6404C12.1159 17.1111 11.8145 16.5542 11.2852 16.3967C10.48 16.1571 9.84298 15.5201 9.60334 14.7148C9.4458 14.1855 8.88897 13.8841 8.35964 14.0416Z" fill="#20FFAF"/>
</svg>
