<svg width="24" height="24" viewBox="0 0 24 24" fill="none" xmlns="http://www.w3.org/2000/svg">
<path d="M13 3C13 2.44772 12.5523 2 12 2C11.4477 2 11 2.44772 11 3V5.58582L9.05023 3.63605C8.65971 3.24552 8.02654 3.24552 7.63602 3.63605C7.24549 4.02657 7.24549 4.65973 7.63602 5.05026L11 8.41424V11H8.41418L5.05023 7.63605C4.65971 7.24552 4.02654 7.24552 3.63602 7.63605C3.24549 8.02657 3.24549 8.65973 3.63602 9.05026L5.58576 11H3C2.44772 11 2 11.4477 2 12C2 12.5523 2.44772 13 3 13H5.58576L3.63603 14.9497C3.24551 15.3402 3.24551 15.9734 3.63603 16.3639C4.02656 16.7545 4.65972 16.7545 5.05025 16.3639L8.41419 13H11V15.5858L7.63603 18.9497C7.24551 19.3402 7.24551 19.9734 7.63603 20.3639C8.02656 20.7545 8.65972 20.7545 9.05025 20.3639L11 18.4142V21C11 21.5523 11.4477 22 12 22C12.5523 22 13 21.5523 13 21V18.4141L14.9497 20.3638C15.3402 20.7544 15.9734 20.7544 16.3639 20.3638C16.7545 19.9733 16.7545 19.3402 16.3639 18.9496L13 15.5857V13H15.5859L18.9497 16.3638C19.3402 16.7544 19.9734 16.7544 20.3639 16.3638C20.7545 15.9733 20.7545 15.3402 20.3639 14.9496L18.4143 13H21C21.5523 13 22 12.5523 22 12C22 11.4477 21.5523 11 21 11H18.4143L20.3639 9.05037C20.7545 8.65984 20.7545 8.02668 20.3639 7.63616C19.9734 7.24563 19.3403 7.24563 18.9497 7.63615L15.5859 11H13V8.41431L16.364 5.05035C16.7545 4.65983 16.7545 4.02666 16.364 3.63614C15.9734 3.24561 15.3403 3.24561 14.9497 3.63614L13 5.58588V3Z" fill="#20FFAF"/>
</svg>
