<svg width="24" height="24" viewBox="0 0 24 24" fill="none" xmlns="http://www.w3.org/2000/svg">
<path d="M11 2C7.68629 2 5 4.68629 5 8C5 8.13781 5.00466 8.27465 5.01385 8.41034C3.24073 9.1787 2 10.9436 2 13C2 15.3312 3.59442 17.2874 5.75074 17.8424C6.28559 17.9801 6.83078 17.6581 6.96844 17.1232C7.1061 16.5884 6.78411 16.0432 6.24926 15.9055C4.95512 15.5725 4 14.3965 4 13C4 11.571 5.00015 10.3732 6.33958 10.0727C6.8783 9.95187 7.21716 9.41729 7.09656 8.87852C7.03348 8.59674 7 8.30288 7 8C7 5.79086 8.79086 4 11 4C12.9343 4 14.5499 5.37395 14.9201 7.19971C15.0161 7.67312 15.4368 8.01024 15.9198 8.00079C15.9465 8.00026 15.9732 8 16 8C18.2091 8 20 9.79086 20 12C20 13.6387 19.0144 15.0494 17.5996 15.6676C17.0935 15.8887 16.8625 16.4782 17.0836 16.9843C17.3048 17.4904 17.8943 17.7214 18.4004 17.5003C20.5174 16.5754 22 14.4619 22 12C22 8.91321 19.669 6.37085 16.6713 6.03713C15.858 3.68745 13.627 2 11 2ZM12.8944 13.4472C13.1414 12.9532 12.9412 12.3526 12.4472 12.1056C11.9532 11.8586 11.3526 12.0588 11.1056 12.5528L9.10557 16.5528C8.95058 16.8628 8.96714 17.2309 9.14935 17.5257C9.33156 17.8205 9.65342 18 10 18H12.382L11.1056 20.5528C10.8586 21.0468 11.0588 21.6474 11.5528 21.8944C12.0468 22.1414 12.6474 21.9412 12.8944 21.4472L14.8944 17.4472C15.0494 17.1372 15.0329 16.7691 14.8507 16.4743C14.6684 16.1795 14.3466 16 14 16H11.618L12.8944 13.4472Z" fill="#20FFAF"/>
</svg>
