<svg width="24" height="24" viewBox="0 0 24 24" fill="none" xmlns="http://www.w3.org/2000/svg">
<path fill-rule="evenodd" clip-rule="evenodd" d="M12.7071 2.29289C12.3166 1.90237 11.6834 1.90237 11.2929 2.29289L9.29289 4.29289C8.90237 4.68342 8.90237 5.31658 9.29289 5.70711C9.68342 6.09763 10.3166 6.09763 10.7071 5.70711L11 5.41421V8.14286C11 8.61624 11.4477 9 12 9C12.5523 9 13 8.61624 13 8.14286V5.41421L13.2929 5.70711C13.6834 6.09763 14.3166 6.09763 14.7071 5.70711C15.0976 5.31658 15.0976 4.68342 14.7071 4.29289L12.7071 2.29289ZM5.63603 11.0501C6.02656 11.4406 6.65972 11.4406 7.05025 11.0501C7.44077 10.6596 7.44077 10.0264 7.05025 9.63591L6.34314 8.9288C5.95262 8.53828 5.31945 8.53828 4.92893 8.9288C4.5384 9.31933 4.5384 9.95249 4.92893 10.343L5.63603 11.0501ZM19.0711 10.3432L18.364 11.0504C17.9735 11.4409 17.3403 11.4409 16.9498 11.0504C16.5593 10.6598 16.5593 10.0267 16.9498 9.63614L17.6569 8.92903C18.0474 8.53851 18.6806 8.53851 19.0711 8.92903C19.4616 9.31955 19.4616 9.95272 19.0711 10.3432ZM8 16C8 13.7909 9.79086 12 12 12C14.2091 12 16 13.7909 16 16C16 17.194 15.4777 18.2659 14.6459 19H9.35412C8.5223 18.2659 8 17.194 8 16ZM8.97005 21C8.98952 21.0006 9.00899 21.0006 9.02842 21H14.9716C14.991 21.0006 15.0105 21.0006 15.0299 21H21C21.5523 21 22 20.5523 22 20C22 19.4477 21.5523 19 21 19H17.1971C17.7074 18.1177 18 17.093 18 16C18 12.6863 15.3137 10 12 10C8.68629 10 6 12.6863 6 16C6 17.093 6.29257 18.1177 6.80293 19H3C2.44772 19 2 19.4477 2 20C2 20.5523 2.44772 21 3 21H8.97005ZM4 17C4.55228 17 5 16.5523 5 16C5 15.4477 4.55228 15 4 15H3C2.44772 15 2 15.4477 2 16C2 16.5523 2.44772 17 3 17H4ZM22 16C22 16.5523 21.5523 17 21 17H20C19.4477 17 19 16.5523 19 16C19 15.4477 19.4477 15 20 15H21C21.5523 15 22 15.4477 22 16Z" fill="#20FFAF"/>
</svg>
