<svg width="24" height="24" viewBox="0 0 24 24" fill="none" xmlns="http://www.w3.org/2000/svg">
<path fill-rule="evenodd" clip-rule="evenodd" d="M8 16.0001C8 13.7909 9.79086 12.0001 12 12.0001C14.2091 12.0001 16 13.7909 16 16.0001C16 17.1941 15.4777 18.2659 14.6459 19.0001L9.35412 19.0001C8.5223 18.2659 8 17.1941 8 16.0001ZM8.97006 21.0001C8.98952 21.0006 9.00898 21.0006 9.02842 21.0001L14.9716 21.0001C14.991 21.0006 15.0105 21.0006 15.0299 21.0001L21 21.0001C21.5523 21.0001 22 20.5523 22 20.0001C22 19.4478 21.5523 19.0001 21 19.0001L17.1971 19.0001C17.7074 18.1178 18 17.093 18 16.0001C18 12.6864 15.3137 10.0001 12 10.0001C8.68629 10.0001 6 12.6864 6 16.0001C6 17.093 6.29257 18.1178 6.80293 19.0001L3 19.0001C2.44772 19.0001 2 19.4478 2 20.0001C2 20.5523 2.44772 21.0001 3 21.0001L8.97006 21.0001ZM19.0711 8.92909C19.4616 9.31962 19.4616 9.95278 19.0711 10.3433L18.364 11.0504C17.9735 11.4409 17.3403 11.4409 16.9498 11.0504C16.5593 10.6599 16.5593 10.0267 16.9498 9.6362L17.6569 8.92909C18.0474 8.53857 18.6806 8.53857 19.0711 8.92909ZM4 17.0001C4.55228 17.0001 5 16.5523 5 16.0001C5 15.4478 4.55228 15.0001 4 15.0001L3 15.0001C2.44772 15.0001 2 15.4478 2 16.0001C2 16.5523 2.44772 17.0001 3 17.0001L4 17.0001ZM22 16.0001C22 16.5523 21.5523 17.0001 21 17.0001L20 17.0001C19.4477 17.0001 19 16.5523 19 16.0001C19 15.4478 19.4477 15.0001 20 15.0001L21 15.0001C21.5523 15.0001 22 15.4478 22 16.0001ZM5.63603 11.0504C6.02656 11.441 6.65972 11.441 7.05025 11.0504C7.44077 10.6599 7.44077 10.0267 7.05025 9.63622L6.34314 8.92911C5.95262 8.53859 5.31945 8.53859 4.92893 8.92911C4.5384 9.31963 4.5384 9.9528 4.92893 10.3433L5.63603 11.0504ZM13 5.58585L13 3.00006C13 2.44778 12.5523 2.00006 12 2.00006C11.4477 2.00006 11 2.44778 11 3.00006L11 5.58585L10.7071 5.29296C10.3166 4.90243 9.68342 4.90243 9.29289 5.29296C8.90237 5.68348 8.90237 6.31664 9.29289 6.70717L11.2918 8.70608C11.2952 8.70947 11.2986 8.71283 11.302 8.71617C11.4822 8.89184 11.7285 9.00006 12 9.00006C12.1367 9.00006 12.2669 8.97265 12.3856 8.92301C12.4988 8.87578 12.605 8.80684 12.698 8.71617C12.7014 8.71283 12.7048 8.70947 12.7082 8.70608L14.7071 6.70717C15.0976 6.31665 15.0976 5.68348 14.7071 5.29296C14.3166 4.90243 13.6834 4.90243 13.2929 5.29296L13 5.58585Z" fill="#20FFAF"/>
</svg>
