<svg width="24" height="24" viewBox="0 0 24 24" fill="none" xmlns="http://www.w3.org/2000/svg">
<path d="M9 5C9 3.34315 10.3431 2 12 2C13.6569 2 15 3.34315 15 5V12.9998C16.213 13.9109 17 15.3631 17 17C17 19.7614 14.7614 22 12 22C9.23858 22 7 19.7614 7 17C7 15.3631 7.78702 13.9109 9 12.9998V5ZM12 4C11.4477 4 11 4.44772 11 5V13.5351C11 13.8921 10.8097 14.222 10.5007 14.4007C9.60141 14.921 9 15.8908 9 17C9 18.6569 10.3431 20 12 20C13.6569 20 15 18.6569 15 17C15 15.8908 14.3986 14.921 13.4993 14.4007C13.1903 14.222 13 13.8921 13 13.5351V5C13 4.44772 12.5523 4 12 4Z" fill="#20FFAF"/>
</svg>
