<svg width="20" height="20" viewBox="0 0 20 20" fill="none" xmlns="http://www.w3.org/2000/svg">
<path d="M9.51429 0.125843C9.81632 -0.0419476 10.1836 -0.0419476 10.4856 0.125843L19.4856 5.12584C19.803 5.30221 19.9999 5.63683 19.9999 6C19.9999 6.36317 19.803 6.69779 19.4856 6.87416L10.4856 11.8742C10.1836 12.0419 9.81632 12.0419 9.51429 11.8742L0.514295 6.87416C0.19683 6.69779 -6.20036e-05 6.36317 -6.20036e-05 6C-6.20036e-05 5.63683 0.19683 5.30221 0.514295 5.12584L9.51429 0.125843ZM3.05906 6L9.99994 9.85604L16.9408 6L9.99994 2.14396L3.05906 6Z" fill="#20FFAF"/>
<path d="M0.125781 9.51436C0.393994 9.03157 1.0028 8.85763 1.48558 9.12584L9.99994 13.856L18.5143 9.12584C18.9971 8.85763 19.6059 9.03157 19.8741 9.51436C20.1423 9.99714 19.9684 10.6059 19.4856 10.8742L10.4856 15.8742C10.1836 16.0419 9.81632 16.0419 9.51429 15.8742L0.514295 10.8742C0.0315114 10.6059 -0.142432 9.99714 0.125781 9.51436Z" fill="#20FFAF"/>
<path d="M0.125781 13.5144C0.393994 13.0316 1.0028 12.8576 1.48558 13.1258L9.99994 17.856L18.5143 13.1258C18.9971 12.8576 19.6059 13.0316 19.8741 13.5144C20.1423 13.9971 19.9684 14.6059 19.4856 14.8742L10.4856 19.8742C10.1836 20.0419 9.81632 20.0419 9.51429 19.8742L0.514295 14.8742C0.0315114 14.6059 -0.142432 13.9971 0.125781 13.5144Z" fill="#20FFAF"/>
</svg>
