<svg width="24" height="24" viewBox="0 0 24 24" fill="none" xmlns="http://www.w3.org/2000/svg">
<path d="M11.5143 2.12584C11.8163 1.95805 12.1836 1.95805 12.4856 2.12584L21.4856 7.12584C21.803 7.30221 21.9999 7.63683 21.9999 8C21.9999 8.36317 21.803 8.69779 21.4856 8.87416L12.4856 13.8742C12.1836 14.0419 11.8163 14.0419 11.5143 13.8742L2.5143 8.87416C2.19683 8.69779 1.99994 8.36317 1.99994 8C1.99994 7.63683 2.19683 7.30221 2.5143 7.12584L11.5143 2.12584ZM5.05906 8L11.9999 11.856L18.9408 8L11.9999 4.14396L5.05906 8Z" fill="#20FFAF"/>
<path d="M2.12578 11.5144C2.39399 11.0316 3.0028 10.8576 3.48558 11.1258L11.9999 15.856L20.5143 11.1258C20.9971 10.8576 21.6059 11.0316 21.8741 11.5144C22.1423 11.9971 21.9684 12.6059 21.4856 12.8742L12.4856 17.8742C12.1836 18.0419 11.8163 18.0419 11.5143 17.8742L2.5143 12.8742C2.03151 12.6059 1.85757 11.9971 2.12578 11.5144Z" fill="#20FFAF"/>
<path d="M2.12578 15.5144C2.39399 15.0316 3.0028 14.8576 3.48558 15.1258L11.9999 19.856L20.5143 15.1258C20.9971 14.8576 21.6059 15.0316 21.8741 15.5144C22.1423 15.9971 21.9684 16.6059 21.4856 16.8742L12.4856 21.8742C12.1836 22.0419 11.8163 22.0419 11.5143 21.8742L2.5143 16.8742C2.03151 16.6059 1.85757 15.9971 2.12578 15.5144Z" fill="#20FFAF"/>
</svg>
