<svg width="18" height="20" viewBox="0 0 18 20" fill="none" xmlns="http://www.w3.org/2000/svg">
<path d="M16 6.11959e-07C17.1046 6.60242e-07 18 0.895431 18 2V4C18 5.10457 17.1046 6 16 6L2 6C0.895429 6 -4.82823e-08 5.10457 0 4L8.74228e-08 2C1.35705e-07 0.89543 0.89543 -4.82823e-08 2 0L16 6.11959e-07ZM16 4V2L2 2V4L16 4Z" fill="#20FFAF"/>
<path d="M16 14C17.1046 14 18 14.8954 18 16V18C18 19.1046 17.1046 20 16 20H2C0.895429 20 -4.82823e-08 19.1046 0 18L8.74228e-08 16C1.35705e-07 14.8954 0.89543 14 2 14L16 14ZM16 18V16H2V18H16Z" fill="#20FFAF"/>
<path d="M16 7C17.1046 7 18 7.89543 18 9V11C18 12.1046 17.1046 13 16 13L2 13C0.895429 13 -4.82823e-08 12.1046 0 11L8.74228e-08 9C1.35705e-07 7.89543 0.89543 7 2 7L16 7ZM16 11V9L2 9V11L16 11Z" fill="#20FFAF"/>
</svg>
