<svg width="18" height="18" viewBox="0 0 18 18" fill="none" xmlns="http://www.w3.org/2000/svg">
<path d="M0 2C0 0.895431 0.895431 0 2 0H16C17.1046 0 18 0.895431 18 2V16C18 17.1046 17.1046 18 16 18H2C0.895431 18 0 17.1046 0 16V2ZM16 2H2V16H16V2ZM9 4C9.55229 4 10 4.44772 10 5V13C10 13.5523 9.55229 14 9 14C8.44772 14 8 13.5523 8 13V5C8 4.44772 8.44772 4 9 4ZM13 6C13.5523 6 14 6.44772 14 7V13C14 13.5523 13.5523 14 13 14C12.4477 14 12 13.5523 12 13V7C12 6.44772 12.4477 6 13 6ZM5 8C5.55228 8 6 8.44772 6 9V13C6 13.5523 5.55228 14 5 14C4.44772 14 4 13.5523 4 13V9C4 8.44772 4.44772 8 5 8Z" fill="#20FFAF"/>
</svg>
