<svg width="16" height="20" viewBox="0 0 16 20" fill="none" xmlns="http://www.w3.org/2000/svg">
<path d="M5 9.5C5.55228 9.5 6 9.05229 6 8.5C6 7.94772 5.55228 7.5 5 7.5C4.44772 7.5 4 7.94772 4 8.5C4 9.05229 4.44772 9.5 5 9.5Z" fill="#20FFAF"/>
<path d="M7 8.5C7 7.94772 7.44772 7.5 8 7.5H11C11.5523 7.5 12 7.94772 12 8.5C12 9.05229 11.5523 9.5 11 9.5H8C7.44772 9.5 7 9.05229 7 8.5Z" fill="#20FFAF"/>
<path d="M8 10.5C7.44772 10.5 7 10.9477 7 11.5C7 12.0523 7.44772 12.5 8 12.5H11C11.5523 12.5 12 12.0523 12 11.5C12 10.9477 11.5523 10.5 11 10.5H8Z" fill="#20FFAF"/>
<path d="M8 13.5C7.44772 13.5 7 13.9477 7 14.5C7 15.0523 7.44772 15.5 8 15.5H11C11.5523 15.5 12 15.0523 12 14.5C12 13.9477 11.5523 13.5 11 13.5H8Z" fill="#20FFAF"/>
<path d="M6 11.5C6 12.0523 5.55228 12.5 5 12.5C4.44772 12.5 4 12.0523 4 11.5C4 10.9477 4.44772 10.5 5 10.5C5.55228 10.5 6 10.9477 6 11.5Z" fill="#20FFAF"/>
<path d="M5 15.5C5.55228 15.5 6 15.0523 6 14.5C6 13.9477 5.55228 13.5 5 13.5C4.44772 13.5 4 13.9477 4 14.5C4 15.0523 4.44772 15.5 5 15.5Z" fill="#20FFAF"/>
<path d="M5 0C4.44772 0 4 0.447715 4 1H2C0.895431 1 0 1.89543 0 3V18C0 19.1046 0.895431 20 2 20H14C15.1046 20 16 19.1046 16 18V3C16 1.89543 15.1046 1 14 1H12C12 0.447715 11.5523 0 11 0H5ZM12 3H14V18H2V3H4V4C4 4.55228 4.44772 5 5 5H11C11.5523 5 12 4.55228 12 4V3ZM6 3V2H10V3H6Z" fill="#20FFAF"/>
</svg>
