<svg width="18" height="20" viewBox="0 0 18 20" fill="none" xmlns="http://www.w3.org/2000/svg">
<path d="M2 4C2 4.02553 2.01022 4.16958 2.29209 4.41948C2.57279 4.66834 3.03602 4.93815 3.69427 5.18499C5.0034 5.67591 6.87903 6 9 6C11.121 6 12.9966 5.67591 14.3057 5.18499C14.964 4.93815 15.4272 4.66834 15.7079 4.41948C15.9898 4.16958 16 4.02553 16 4C16 3.97447 15.9898 3.83042 15.7079 3.58052C15.4272 3.33166 14.964 3.06185 14.3057 2.81501C12.9966 2.32409 11.121 2 9 2C6.87903 2 5.0034 2.32409 3.69427 2.81501C3.03602 3.06185 2.57279 3.33166 2.29209 3.58052C2.01022 3.83042 2 3.97447 2 4ZM0 4C0 3.19711 0.437492 2.55194 0.965273 2.08401C1.49422 1.61504 2.20256 1.2384 2.99202 0.942351C4.57833 0.347486 6.70269 0 9 0C11.2973 0 13.4217 0.347486 15.008 0.942351C15.7974 1.2384 16.5058 1.61504 17.0347 2.08401C17.5625 2.55194 18 3.19711 18 4V8V12V16C18 16.8029 17.5625 17.4481 17.0347 17.916C16.5058 18.385 15.7974 18.7616 15.008 19.0576C13.4217 19.6525 11.2973 20 9 20C6.70269 20 4.57833 19.6525 2.99202 19.0576C2.20256 18.7616 1.49422 18.385 0.965273 17.916C0.437492 17.4481 0 16.8029 0 16V12V8V4ZM2 8C2 8.02553 2.01022 8.16958 2.29209 8.41948C2.57279 8.66834 3.03602 8.93815 3.69427 9.18499C5.0034 9.67591 6.87903 10 9 10C11.121 10 12.9966 9.67591 14.3057 9.18499C14.964 8.93815 15.4272 8.66834 15.7079 8.41948C15.9898 8.16958 16 8.02553 16 8V6.61619C15.6909 6.77981 15.3574 6.92662 15.008 7.05765C13.4217 7.65251 11.2973 8 9 8C6.70269 8 4.57833 7.65251 2.99202 7.05765C2.64262 6.92662 2.3091 6.77981 2 6.61619V8ZM2 10.6162V12C2 12.0255 2.01022 12.1696 2.29209 12.4195C2.57279 12.6683 3.03602 12.9381 3.69427 13.185C5.0034 13.6759 6.87903 14 9 14C11.121 14 12.9966 13.6759 14.3057 13.185C14.964 12.9381 15.4272 12.6683 15.7079 12.4195C15.9898 12.1696 16 12.0255 16 12V10.6162C15.6909 10.7798 15.3574 10.9266 15.008 11.0576C13.4217 11.6525 11.2973 12 9 12C6.70269 12 4.57833 11.6525 2.99202 11.0576C2.64262 10.9266 2.3091 10.7798 2 10.6162ZM2 14.6162V16C2 16.0255 2.01022 16.1696 2.29209 16.4195C2.57279 16.6683 3.03602 16.9381 3.69427 17.185C5.0034 17.6759 6.87903 18 9 18C11.121 18 12.9966 17.6759 14.3057 17.185C14.964 16.9381 15.4272 16.6683 15.7079 16.4195C15.9898 16.1696 16 16.0255 16 16V14.6162C15.6909 14.7798 15.3574 14.9266 15.008 15.0576C13.4217 15.6525 11.2973 16 9 16C6.70269 16 4.57833 15.6525 2.99202 15.0576C2.64262 14.9266 2.3091 14.7798 2 14.6162Z" fill="#20FFAF"/>
</svg>
