<svg width="16" height="20" viewBox="0 0 16 20" fill="none" xmlns="http://www.w3.org/2000/svg">
<path d="M0 2C0 0.895432 0.89543 0 2 0H10C10.2652 0 10.5196 0.105357 10.7071 0.292893L15.7071 5.29289C15.8946 5.48043 16 5.73478 16 6V18C16 19.1046 15.1046 20 14 20H2C0.895432 20 0 19.1046 0 18V2ZM13.5858 6L10 2.41421V6H13.5858ZM8 2L2 2V18H14V8H9C8.44772 8 8 7.55228 8 7V2ZM5 13C5 12.4477 5.44772 12 6 12H10C10.5523 12 11 12.4477 11 13C11 13.5523 10.5523 14 10 14H6C5.44772 14 5 13.5523 5 13Z" fill="#20FFAF"/>
</svg>
