<svg width="16" height="20" viewBox="0 0 16 20" fill="none" xmlns="http://www.w3.org/2000/svg">
<path d="M0 2C0 0.895432 0.89543 0 2 0H10C10.2652 0 10.5196 0.105357 10.7071 0.292893L15.7071 5.29289C15.8946 5.48043 16 5.73478 16 6V18C16 19.1046 15.1046 20 14 20H2C0.895432 20 0 19.1046 0 18V2ZM13.5858 6L10 2.41421V6H13.5858ZM8 2L2 2V18H14V8H9C8.44772 8 8 7.55228 8 7V2ZM8 9.5C8.55228 9.5 9 9.94772 9 10.5V13.0858L9.29289 12.7929C9.68342 12.4024 10.3166 12.4024 10.7071 12.7929C11.0976 13.1834 11.0976 13.8166 10.7071 14.2071L8.70711 16.2071C8.31658 16.5976 7.68342 16.5976 7.29289 16.2071L5.29289 14.2071C4.90237 13.8166 4.90237 13.1834 5.29289 12.7929C5.68342 12.4024 6.31658 12.4024 6.70711 12.7929L7 13.0858L7 10.5C7 9.94771 7.44772 9.5 8 9.5Z" fill="#20FFAF"/>
</svg>
