<svg width="20" height="16" viewBox="0 0 20 16" fill="none" xmlns="http://www.w3.org/2000/svg">
<path d="M0 2C0 0.895432 0.89543 0 2 0H7C7.26522 0 7.51957 0.105357 7.70711 0.292893L9.41421 2H18C19.1046 2 20 2.89543 20 4V14C20 15.1046 19.1046 16 18 16H2C0.895432 16 0 15.1046 0 14V2ZM6.58579 2L2 2V14H18V4H9C8.73478 4 8.48043 3.89464 8.29289 3.70711L6.58579 2ZM10 6C10.5523 6 11 6.44772 11 7V8H12C12.5523 8 13 8.44772 13 9C13 9.55229 12.5523 10 12 10H11V11C11 11.5523 10.5523 12 10 12C9.44771 12 9 11.5523 9 11V10H8C7.44772 10 7 9.55229 7 9C7 8.44772 7.44772 8 8 8H9V7C9 6.44772 9.44771 6 10 6Z" fill="#20FFAF"/>
</svg>
