<svg width="20" height="16" viewBox="0 0 20 16" fill="none" xmlns="http://www.w3.org/2000/svg">
<path d="M0 2C0 0.895432 0.89543 0 2 0H7C7.26522 0 7.51957 0.105357 7.70711 0.292893L9.41421 2H18C19.1046 2 20 2.89543 20 4V14C20 15.1046 19.1046 16 18 16H2C0.895432 16 0 15.1046 0 14V2ZM6.58579 2L2 2V14H18V4H9C8.73478 4 8.48043 3.89464 8.29289 3.70711L6.58579 2ZM10 5.5C10.5523 5.5 11 5.94772 11 6.5V9.08579L11.2929 8.79289C11.6834 8.40237 12.3166 8.40237 12.7071 8.79289C13.0976 9.18342 13.0976 9.81658 12.7071 10.2071L10.7071 12.2071C10.3166 12.5976 9.68342 12.5976 9.29289 12.2071L7.29289 10.2071C6.90237 9.81658 6.90237 9.18342 7.29289 8.79289C7.68342 8.40237 8.31658 8.40237 8.70711 8.79289L9 9.08579V6.5C9 5.94772 9.44772 5.5 10 5.5Z" fill="#20FFAF"/>
</svg>
