<svg width="18" height="18" viewBox="0 0 18 18" fill="none" xmlns="http://www.w3.org/2000/svg">
<path d="M12.5 7C13.3284 7 14 6.32843 14 5.5C14 4.67157 13.3284 4 12.5 4C11.6716 4 11 4.67157 11 5.5C11 6.32843 11.6716 7 12.5 7Z" fill="#20FFAF"/>
<path d="M0 2C0 0.895431 0.895431 0 2 0H16C17.1046 0 18 0.895431 18 2V16C18 17.1046 17.1046 18 16 18H2C0.895431 18 0 17.1046 0 16V2ZM16 2H2V9.9194L5.37534 7.21913C5.74056 6.92696 6.25951 6.92696 6.62473 7.21913L10.9258 10.66L12.2929 9.29289C12.6835 8.90237 13.3166 8.90237 13.7071 9.29289L16 11.5857V2ZM2 16H16V14.4142L13 11.4142L11.7071 12.7071C11.3468 13.0674 10.7732 13.0992 10.3753 12.7809L6.00004 9.28062L2 12.4807V16Z" fill="#20FFAF"/>
</svg>
