<svg width="18" height="18" viewBox="0 0 18 18" fill="none" xmlns="http://www.w3.org/2000/svg">
<path d="M0 2C0 0.895431 0.895431 0 2 0H16C17.1046 0 18 0.895431 18 2V16C18 17.1046 17.1046 18 16 18H2C0.895431 18 0 17.1046 0 16V2ZM2 11V16H16V11H13.7208L12.9487 13.3162C12.8126 13.7246 12.4304 14 12 14H6C5.56957 14 5.18743 13.7246 5.05132 13.3162L4.27924 11H2ZM16 9V2H2V9H4.27924C5.1401 9 5.90438 9.55086 6.17661 10.3675L6.72076 12H11.2792L11.8234 10.3675C12.0956 9.55086 12.8599 9 13.7208 9H16Z" fill="#20FFAF"/>
</svg>
