<svg width="16" height="20" viewBox="0 0 16 20" fill="none" xmlns="http://www.w3.org/2000/svg">
<path d="M8 0C3.6 0 0 3.6 0 8C0 13.4 7 19.5 7.3 19.8C7.5 19.9 7.8 20 8 20C8.2 20 8.5 19.9 8.7 19.8C9 19.5 16 13.4 16 8C16 3.6 12.4 0 8 0ZM8 17.7C5.9 15.7 2 11.4 2 8C2 4.7 4.7 2 8 2C11.3 2 14 4.7 14 8C14 11.3 10.1 15.7 8 17.7ZM8 4C5.8 4 4 5.8 4 8C4 10.2 5.8 12 8 12C10.2 12 12 10.2 12 8C12 5.8 10.2 4 8 4ZM8 10C6.9 10 6 9.1 6 8C6 6.9 6.9 6 8 6C9.1 6 10 6.9 10 8C10 9.1 9.1 10 8 10Z" fill="#20FFAF"/>
</svg>
