<svg width="18" height="20" viewBox="0 0 18 20" fill="none" xmlns="http://www.w3.org/2000/svg">
<path d="M16.0001 8C16.0001 4.77579 13.8203 2.06072 10.854 1.24812C10.5568 0.516158 9.83873 0 9.00011 0C8.16148 0 7.44341 0.516159 7.14625 1.24812C6.58616 1.40155 6.05411 1.62281 5.55948 1.90252L7.05107 3.39411C7.65002 3.14035 8.30867 3 9.00011 3C11.7615 3 14.0001 5.23858 14.0001 8V10.3431L16.0001 12.3431V8Z" fill="#20FFAF"/>
<path d="M0.175403 15.4343L2.00011 12.6972V7.99999C2.00011 6.94987 2.23134 5.95375 2.64568 5.05978L0.293 2.70711C-0.0975243 2.31658 -0.0975243 1.68342 0.293 1.29289C0.683524 0.902369 1.31669 0.902369 1.70721 1.29289L17.7072 17.2929C18.0977 17.6834 18.0977 18.3166 17.7072 18.7071C17.3167 19.0976 16.6835 19.0976 16.293 18.7071L14.5859 17H12.4647C12.222 18.6961 10.7633 20 9.00011 20C7.23687 20 5.77817 18.6961 5.53555 17H1.01307C0.915657 17.0014 0.81754 16.9885 0.721972 16.9608C0.596128 16.9244 0.480491 16.864 0.380363 16.7849C0.166798 16.616 0.0237898 16.3618 0.00278663 16.0738C-0.00639049 15.9509 0.00701021 15.8258 0.0443123 15.7051C0.0743517 15.6076 0.118888 15.5165 0.175403 15.4343ZM2.86862 15H12.5859L4.19586 6.60997C4.06841 7.05126 4.00011 7.51765 4.00011 7.99999V13C4.00011 13.1974 3.94167 13.3904 3.83216 13.5547L2.86862 15ZM7.58546 17C7.79138 17.5826 8.347 18 9.00011 18C9.65322 18 10.2088 17.5826 10.4148 17H7.58546Z" fill="#20FFAF"/>
</svg>
