<svg width="19" height="19" viewBox="0 0 19 19" fill="none" xmlns="http://www.w3.org/2000/svg">
<path d="M14.7071 0.292893C14.3166 -0.0976311 13.6834 -0.0976311 13.2929 0.292893L11 2.58579L9.70711 1.29289C9.31658 0.902369 8.68342 0.902369 8.29289 1.29289L2.29289 7.29289C1.90237 7.68342 1.90237 8.31658 2.29289 8.70711C2.68342 9.09763 3.31658 9.09763 3.70711 8.70711L9 3.41421L9.58579 4L7.29289 6.29289L0.292893 13.2929C0.105357 13.4804 0 13.7348 0 14V18C0 18.5523 0.447715 19 1 19H5C5.26522 19 5.51957 18.8946 5.70711 18.7071L12.7071 11.7071L18.7071 5.70711C19.0976 5.31658 19.0976 4.68342 18.7071 4.29289L14.7071 0.292893ZM11.7071 4.70711L14 2.41421L16.5858 5L12 9.58579L9.41421 7L11.7071 4.70711ZM2 14.4142L8 8.41421L10.5858 11L4.58579 17H2V14.4142Z" fill="#20FFAF"/>
</svg>
