<svg width="16" height="20" viewBox="0 0 16 20" fill="none" xmlns="http://www.w3.org/2000/svg">
<path d="M2 8.59935V2C1.44772 2 1 1.55228 1 1C1 0.447715 1.44772 0 2 0H14C14.5523 0 15 0.447715 15 1C15 1.55228 14.5523 2 14 2V8.59935C14.9318 9.62014 15.4321 10.6341 15.6987 11.4338C15.8447 11.8719 15.9199 12.2435 15.9587 12.5148C15.9781 12.6506 15.9884 12.7615 15.9939 12.8436C15.9966 12.8847 15.9981 12.9186 15.999 12.9448L15.9996 12.9682L15.9998 12.9783L16 12.9907L16 12.9957L16 12.9979L16 12.999C16 12.999 15.9954 12.8677 16 13C16 13.5523 15.5523 14 15 14H9V19C9 19.5523 8.55229 20 8 20C7.44772 20 7 19.5523 7 19V14H1C0.447715 14 0 13.5523 0 13C0 12.5 0 12.999 0 12.999L2.02656e-06 12.9979L8.64267e-06 12.9957L3.86238e-05 12.9907L0.00018698 12.9783C0.000333309 12.9691 0.000585318 12.9579 0.00100815 12.9448C0.00185376 12.9186 0.00338346 12.8847 0.0061211 12.8436C0.0115941 12.7615 0.0219101 12.6506 0.0413005 12.5148C0.0800567 12.2435 0.155278 11.8719 0.301317 11.4338C0.567876 10.6341 1.06824 9.62014 2 8.59935ZM12 2H4V9C4 9.26522 3.89464 9.51957 3.70711 9.70711C2.86009 10.5541 2.43577 11.3854 2.22128 12H13.7787C13.5642 11.3854 13.1399 10.5541 12.2929 9.70711C12.1054 9.51957 12 9.26522 12 9V2Z" fill="#20FFAF"/>
</svg>
