<svg width="20" height="20" viewBox="0 0 20 20" fill="none" xmlns="http://www.w3.org/2000/svg">
<path d="M5 0C4.44772 0 4 0.447715 4 1V5H2C0.89543 5 0 5.89543 0 7V15C0 16.1046 0.895432 17 2 17H4V19C4 19.5523 4.44772 20 5 20H15C15.5523 20 16 19.5523 16 19V17H18C19.1046 17 20 16.1046 20 15V7C20 5.89543 19.1046 5 18 5H16V1C16 0.447715 15.5523 0 15 0H5ZM15 12H5C4.44772 12 4 12.4477 4 13V15H2V7H5H15H18V15H16V13C16 12.4477 15.5523 12 15 12ZM14 5H6V2H14V5ZM3 8V10H6V8H3ZM14 14V18H6V14H14Z" fill="#20FFAF"/>
</svg>
