<svg width="20" height="20" viewBox="0 0 20 20" fill="none" xmlns="http://www.w3.org/2000/svg">
<path d="M2.1421 1.99989L4.00913 14.1356C4.02271 14.2357 4.05113 14.3312 4.0921 14.4197C4.21543 14.6859 4.45246 14.8888 4.74088 14.966C4.82899 14.9897 4.92133 15.0015 5.01578 14.9999H16C16.4416 14.9999 16.8309 14.7102 16.9578 14.2872L19.9578 4.28724C20.0487 3.98447 19.991 3.65657 19.8023 3.40296C19.6136 3.14935 19.3161 2.99989 19 2.99989H4.31948L3.99058 0.862085C3.97826 0.772703 3.95413 0.68709 3.91981 0.606874C3.85751 0.460798 3.76213 0.334265 3.64429 0.235085C3.53497 0.142894 3.40561 0.0737171 3.26367 0.0350207C3.17434 0.0105565 3.0806 -0.00169715 2.9847 -0.000106811H1C0.447715 -0.000106811 0 0.447608 0 0.999893C0 1.55218 0.447715 1.99989 1 1.99989H2.1421ZM5.85794 12.9999L4.62717 4.99989H17.656L15.256 12.9999H5.85794Z" fill="#20FFAF"/>
<path d="M8 17.9999C8 19.1045 7.10457 19.9999 6 19.9999C4.89543 19.9999 4 19.1045 4 17.9999C4 16.8953 4.89543 15.9999 6 15.9999C7.10457 15.9999 8 16.8953 8 17.9999Z" fill="#20FFAF"/>
<path d="M17 17.9999C17 19.1045 16.1046 19.9999 15 19.9999C13.8954 19.9999 13 19.1045 13 17.9999C13 16.8953 13.8954 15.9999 15 15.9999C16.1046 15.9999 17 16.8953 17 17.9999Z" fill="#20FFAF"/>
</svg>
