<svg width="20" height="18" viewBox="0 0 20 18" fill="none" xmlns="http://www.w3.org/2000/svg">
<path d="M0 2C0 0.895431 0.895431 0 2 0H18C19.1046 0 20 0.89543 20 2V4C20 4.74708 19.5904 5.39848 18.9835 5.74188C18.9944 5.82638 19 5.91253 19 6V16C19 17.1046 18.1046 18 17 18H3C1.89543 18 1 17.1046 1 16V6C1 5.91253 1.00561 5.82638 1.0165 5.74188C0.409613 5.39848 0 4.74707 0 4V2ZM18 4V2H2V4H18ZM3 6V16H17V6H3ZM6 9C6 8.44772 6.44772 8 7 8H13C13.5523 8 14 8.44772 14 9C14 9.55229 13.5523 10 13 10H7C6.44772 10 6 9.55229 6 9Z" fill="#20FFAF"/>
</svg>
