<svg width="18" height="20" viewBox="0 0 18 20" fill="none" xmlns="http://www.w3.org/2000/svg">
<path fill-rule="evenodd" clip-rule="evenodd" d="M2.00004 2.79717C3.51711 2.48543 4.67038 2.4665 5.62603 2.58596C6.74502 2.72583 7.64379 3.05933 8.64894 3.43626L8.67895 3.44751C9.66594 3.81767 10.7589 4.22757 12.126 4.39846C13.23 4.53645 14.4813 4.51627 16.0001 4.2398V13.2027C14.483 13.5144 13.3297 13.5334 12.3741 13.4139C11.2551 13.274 10.3563 12.9405 9.35119 12.5636L9.32119 12.5523C8.3342 12.1822 7.24124 11.7723 5.8741 11.6014C4.77014 11.4634 3.51884 11.4836 2.00006 11.7601L2.00004 2.79717ZM16.7575 2.02979C14.8574 2.50482 13.4828 2.55249 12.3741 2.4139C11.2551 2.27403 10.3563 1.94053 9.35119 1.5636L9.32118 1.55235C8.33419 1.18219 7.24124 0.772295 5.8741 0.601402C4.48735 0.428059 2.86811 0.50431 0.778235 1.02462C0.332674 1.1255 0 1.52388 0 1.99995V18.9999C0 19.5522 0.447715 19.9999 1 19.9999C1.55228 19.9999 2 19.5522 2 18.9999V13.7972C3.5171 13.4854 4.67037 13.4665 5.62603 13.586C6.74502 13.7258 7.64379 14.0593 8.64894 14.4363L8.67894 14.4475C9.66593 14.8177 10.7589 15.2276 12.126 15.3985C13.5174 15.5724 15.1427 15.495 17.2426 14.9701C17.6878 14.8588 18.0001 14.4588 18.0001 13.9999V2.99993C18.0001 2.69199 17.8582 2.40123 17.6155 2.21172C17.3728 2.02222 17.0563 1.9551 16.7575 2.02979Z" fill="#20FFAF"/>
</svg>
