<svg width="10" height="16" viewBox="0 0 10 16" fill="none" xmlns="http://www.w3.org/2000/svg">
<path d="M5 0C5.26522 0 5.51957 0.105357 5.70711 0.292893L9.70711 4.29289C10.0976 4.68342 10.0976 5.31658 9.70711 5.70711C9.31658 6.09763 8.68342 6.09763 8.29289 5.70711L5 2.41421L1.70711 5.70711C1.31658 6.09763 0.683417 6.09763 0.292893 5.70711C-0.0976311 5.31658 -0.0976311 4.68342 0.292893 4.29289L4.29289 0.292893C4.48043 0.105357 4.73478 0 5 0ZM0.292894 10.2929C0.683418 9.90238 1.31658 9.90238 1.70711 10.2929L5 13.5858L8.29289 10.2929C8.68342 9.90238 9.31658 9.90238 9.70711 10.2929C10.0976 10.6834 10.0976 11.3166 9.70711 11.7071L5.70711 15.7071C5.31658 16.0976 4.68342 16.0976 4.29289 15.7071L0.292894 11.7071C-0.0976307 11.3166 -0.0976307 10.6834 0.292894 10.2929Z" fill="#20FFAF"/>
</svg>
