<svg width="20" height="20" viewBox="0 0 20 20" fill="none" xmlns="http://www.w3.org/2000/svg">
<path d="M10 0C10.3788 0 10.725 0.214002 10.8944 0.552786L19.8944 18.5528C20.067 18.8978 20.0256 19.3113 19.7882 19.6154C19.5508 19.9195 19.1597 20.0599 18.7831 19.9762L10 18.0244L1.21694 19.9762C0.840351 20.0599 0.449212 19.9195 0.211802 19.6154C-0.0256073 19.3113 -0.0669427 18.8978 0.10558 18.5528L9.10558 0.552786C9.27497 0.214002 9.62124 0 10 0ZM11 16.1978L17.166 17.568L11 5.23607V16.1978ZM9.00001 5.23607L2.83402 17.568L9.00001 16.1978V5.23607Z" fill="#20FFAF"/>
</svg>
