<svg width="20" height="16" viewBox="0 0 20 16" fill="none" xmlns="http://www.w3.org/2000/svg">
<path d="M6.29289 0.292893C6.48043 0.105357 6.73478 0 7 0H13C13.2652 0 13.5196 0.105357 13.7071 0.292893L15.4142 2H18C19.1046 2 20 2.89543 20 4V14C20 15.1046 19.1046 16 18 16H2C0.895432 16 0 15.1046 0 14V4C0 2.89543 0.895431 2 2 2H4.58579L6.29289 0.292893ZM7.41421 2L5.70711 3.70711C5.51957 3.89464 5.26522 4 5 4L2 4V14H18V4H15C14.7348 4 14.4804 3.89464 14.2929 3.70711L12.5858 2H7.41421ZM10 6.5C8.89543 6.5 8 7.39543 8 8.5C8 9.60457 8.89543 10.5 10 10.5C11.1046 10.5 12 9.60457 12 8.5C12 7.39543 11.1046 6.5 10 6.5ZM6 8.5C6 6.29086 7.79086 4.5 10 4.5C12.2091 4.5 14 6.29086 14 8.5C14 10.7091 12.2091 12.5 10 12.5C7.79086 12.5 6 10.7091 6 8.5Z" fill="#20FFAF"/>
</svg>
