<svg width="16" height="20" viewBox="0 0 16 20" fill="none" xmlns="http://www.w3.org/2000/svg">
<path d="M0 2C0 0.895432 0.89543 0 2 0H14C15.1046 0 16 0.89543 16 2V18C16 19.1046 15.1046 20 14 20H2C0.895431 20 0 19.1046 0 18V2ZM14 2L2 2V18H14V2Z" fill="#20FFAF"/>
<path d="M8 10C6.89543 10 6 10.8954 6 12C6 13.1046 6.89543 14 8 14C9.10457 14 10 13.1046 10 12C10 10.8954 9.10457 10 8 10ZM4 12C4 9.79086 5.79086 8 8 8C10.2091 8 12 9.79086 12 12C12 14.2091 10.2091 16 8 16C5.79086 16 4 14.2091 4 12Z" fill="#20FFAF"/>
<path d="M9.5 5.5C9.5 6.32843 8.82843 7 8 7C7.17157 7 6.5 6.32843 6.5 5.5C6.5 4.67157 7.17157 4 8 4C8.82843 4 9.5 4.67157 9.5 5.5Z" fill="#20FFAF"/>
</svg>
