<svg width="250" height="250" viewBox="0 0 250 250" fill="none" xmlns="http://www.w3.org/2000/svg">
<rect width="250" height="250" fill="#2C2543"/>
<path fill-rule="evenodd" clip-rule="evenodd" d="M152.5 84.291L176.568 84.291V91.1594L152.5 91.1594V84.291Z" fill="url(#paint0_linear_1119_1931)"/>
<path fill-rule="evenodd" clip-rule="evenodd" d="M168.25 72V96.943L160.729 104.173L160.729 79.5914L168.25 72Z" fill="url(#paint1_linear_1119_1931)"/>
<path fill-rule="evenodd" clip-rule="evenodd" d="M156.947 114.657L172.037 100.197L172.037 161.184L156.947 153.593V114.657Z" fill="url(#paint2_linear_1119_1931)"/>
<path fill-rule="evenodd" clip-rule="evenodd" d="M84.7422 92.2436V72L171.989 155.866V176.11L84.7422 92.2436Z" fill="url(#paint3_linear_1119_1931)"/>
<path fill-rule="evenodd" clip-rule="evenodd" d="M84.7422 72L99.7848 86.4597L99.7848 161.65L84.7422 176.11L84.7422 72Z" fill="url(#paint4_linear_1119_1931)"/>
<path fill-rule="evenodd" clip-rule="evenodd" d="M84.7427 176.109L121.597 141.406L111.067 131.284L84.9768 154.991L84.7427 176.109Z" fill="url(#paint5_linear_1119_1931)"/>
<defs>
<linearGradient id="paint0_linear_1119_1931" x1="154.283" y1="88.1307" x2="177.83" y2="88.1307" gradientUnits="userSpaceOnUse">
<stop stop-color="#20FFAF"/>
<stop offset="1" stop-color="#01DACC"/>
</linearGradient>
<linearGradient id="paint1_linear_1119_1931" x1="167.869" y1="76.2763" x2="160.7" y2="76.2763" gradientUnits="userSpaceOnUse">
<stop stop-color="#20FFAF"/>
<stop offset="1" stop-color="#01DACC"/>
</linearGradient>
<linearGradient id="paint2_linear_1119_1931" x1="158.953" y1="103.29" x2="158.953" y2="161.419" gradientUnits="userSpaceOnUse">
<stop stop-color="#20FFAF"/>
<stop offset="1" stop-color="#01DACC"/>
</linearGradient>
<linearGradient id="paint3_linear_1119_1931" x1="96.3387" y1="77.2796" x2="96.3387" y2="176.511" gradientUnits="userSpaceOnUse">
<stop stop-color="#20FFAF"/>
<stop offset="1" stop-color="#01DACC"/>
</linearGradient>
<linearGradient id="paint4_linear_1119_1931" x1="86.7416" y1="77.2796" x2="86.7416" y2="176.511" gradientUnits="userSpaceOnUse">
<stop stop-color="#20FFAF"/>
<stop offset="1" stop-color="#01DACC"/>
</linearGradient>
<linearGradient id="paint5_linear_1119_1931" x1="90.7914" y1="132.738" x2="88.9" y2="176.466" gradientUnits="userSpaceOnUse">
<stop stop-color="#20FFAF"/>
<stop offset="1" stop-color="#01DACC"/>
</linearGradient>
</defs>
</svg>
