<svg width="1000" height="1000" viewBox="0 0 1000 1000" fill="none" xmlns="http://www.w3.org/2000/svg">
<rect width="1000" height="1000" fill="#2C2543"/>
<path d="M323.966 760.889C316.203 760.889 309.41 763.606 305.286 769.16V761.952H292.792V820.204H305.286V795.982C305.286 783.575 307.469 771.523 320.327 771.523C330.638 771.523 331.972 779.439 331.972 786.293V820.204H344.466V783.22C344.466 768.923 337.188 760.889 323.966 760.889Z" fill="white"/>
<path d="M387.697 820.204H398.978L412.2 779.085L425.301 820.204H436.703L454.777 761.952H441.555L430.274 801.535L417.537 761.952H406.741L393.883 801.653L382.845 761.952H369.501L387.697 820.204Z" fill="white"/>
<path d="M483.834 820.204H496.692V785.465H510.278C528.716 785.465 538.784 776.958 538.784 761.361C538.784 746.001 528.837 737.848 510.278 737.848H483.834V820.204ZM496.692 773.768V749.545H508.944C520.589 749.545 525.683 753.208 525.683 761.597C525.683 769.869 520.467 773.768 508.944 773.768H496.692Z" fill="white"/>
<path d="M579.329 821.267C582.118 821.267 585.272 820.677 588.305 819.613V809.688C586.485 810.279 584.787 810.515 583.331 810.515C580.178 810.515 578.601 808.979 578.601 805.907V737.848H566.107V806.734C566.107 816.659 571.565 821.267 579.329 821.267Z" fill="white"/>
<path d="M653.258 761.952V785.584C653.258 797.636 651.317 810.633 638.338 810.633C627.178 810.633 626.571 800.944 626.571 795.036V761.952H614.077V798.108C614.077 811.224 620.263 821.267 634.82 821.267C642.098 821.267 649.012 818.668 653.258 812.878V820.204H665.752V761.952H653.258Z" fill="white"/>
<path d="M718.805 821.267C730.207 821.267 741.488 815.359 741.488 802.362C741.488 780.857 709.101 787.238 709.101 776.722C709.101 773.177 712.618 770.696 718.198 770.696C725.113 770.696 728.873 774.359 731.178 778.494L740.882 773.295C736.515 765.26 728.752 760.889 718.684 760.889C706.917 760.889 697.213 766.796 697.213 777.667C697.213 798.935 729.237 791.373 729.237 803.071C729.237 807.207 725.477 810.988 718.32 810.988C709.828 810.988 705.825 805.789 704.006 800.944L693.938 805.316C696.849 814.414 706.432 821.267 718.805 821.267Z" fill="white"/>
<path fill-rule="evenodd" clip-rule="evenodd" d="M635.318 240.141L757 240.141V274.865L635.318 274.865V240.141Z" fill="white"/>
<path fill-rule="evenodd" clip-rule="evenodd" d="M714.946 178L714.946 304.105L676.92 340.658L676.92 216.38L714.946 178Z" fill="white"/>
<path fill-rule="evenodd" clip-rule="evenodd" d="M657.801 393.663L734.093 320.559L734.093 628.892L657.801 590.512L657.801 393.663Z" fill="white"/>
<path fill-rule="evenodd" clip-rule="evenodd" d="M292.754 280.346V178L733.852 602.007V704.353L292.754 280.346Z" fill="white"/>
<path fill-rule="evenodd" clip-rule="evenodd" d="M292.754 178L368.805 251.105L368.805 631.248L292.754 704.353L292.754 178Z" fill="white"/>
<path fill-rule="evenodd" clip-rule="evenodd" d="M292.754 704.348L479.08 528.897L425.844 477.724L293.938 597.579L292.754 704.348Z" fill="white"/>
</svg>
