<svg width="20" height="20" viewBox="0 0 20 20" fill="none" xmlns="http://www.w3.org/2000/svg">
<path d="M10 2C5.58172 2 2 5.58172 2 10C2 14.4183 5.58172 18 10 18C14.4183 18 18 14.4183 18 10C18 5.58172 14.4183 2 10 2ZM0 10C0 4.47715 4.47715 0 10 0C15.5228 0 20 4.47715 20 10C20 15.5228 15.5228 20 10 20C4.47715 20 0 15.5228 0 10ZM9.70711 5.29289C10.0976 5.68342 10.0976 6.31658 9.70711 6.70711L7.41421 9H15C15.5523 9 16 9.44771 16 10C16 10.5523 15.5523 11 15 11H7.41421L9.70711 13.2929C10.0976 13.6834 10.0976 14.3166 9.70711 14.7071C9.31658 15.0976 8.68342 15.0976 8.29289 14.7071L4.29289 10.7071C3.90237 10.3166 3.90237 9.68342 4.29289 9.29289L8.29289 5.29289C8.68342 4.90237 9.31658 4.90237 9.70711 5.29289Z" fill="#20FFAF"/>
</svg>
