<svg width="14" height="14" viewBox="0 0 14 14" fill="none" xmlns="http://www.w3.org/2000/svg">
<path d="M0 2.76627C0 1.21168 1.69594 0.251457 3.02899 1.05129L10.0853 5.2851C11.38 6.0619 11.38 7.93826 10.0853 8.71507L3.02899 12.9489C1.69595 13.7487 0 12.7885 0 11.2339V2.76627ZM9.05635 7.00008L2 2.76627V11.2339L9.05635 7.00008Z" fill="#20FFAF"/>
<path d="M13 1.00008C13.5523 1.00008 14 1.4478 14 2.00008V12.0001C14 12.5524 13.5523 13.0001 13 13.0001C12.4477 13.0001 12 12.5524 12 12.0001V2.00008C12 1.4478 12.4477 1.00008 13 1.00008Z" fill="#20FFAF"/>
</svg>
