<svg width="20" height="16" viewBox="0 0 20 16" fill="none" xmlns="http://www.w3.org/2000/svg">
<path d="M3 6C3 2.68629 5.68629 0 9 0C11.627 0 13.858 1.68745 14.6713 4.03713C17.669 4.37085 20 6.91321 20 10C20 13.3137 17.3137 16 14 16H5C2.23858 16 0 13.7614 0 11C0 8.94357 1.24073 7.1787 3.01385 6.41034C3.00466 6.27465 3 6.13781 3 6ZM9 2C6.79086 2 5 3.79086 5 6C5 6.30288 5.03348 6.59674 5.09656 6.87852C5.21716 7.41729 4.8783 7.95187 4.33958 8.07271C3.00015 8.37316 2 9.57096 2 11C2 12.6569 3.34315 14 5 14H14C16.2091 14 18 12.2091 18 10C18 7.79086 16.2091 6 14 6C13.9732 6 13.9465 6.00026 13.9198 6.00079C13.4368 6.01024 13.0161 5.67312 12.9201 5.19971C12.5499 3.37395 10.9343 2 9 2Z" fill="#20FFAF"/>
</svg>
