<svg width="20" height="18" viewBox="0 0 20 18" fill="none" xmlns="http://www.w3.org/2000/svg">
<path d="M14 2C15.6569 2 17 3.34315 17 5C17 5.57574 16.8378 6.11361 16.5566 6.5704C15.9735 6.29534 15.3389 6.11146 14.6713 6.03713C14.1931 4.65551 13.2247 3.50285 11.9738 2.78759C12.5076 2.29848 13.219 2 14 2ZM9.94511 2.07399C9.63726 2.02529 9.3216 2 9 2C5.68629 2 3 4.68629 3 8C3 8.13781 3.00466 8.27465 3.01385 8.41034C1.24073 9.1787 0 10.9436 0 13C0 15.7614 2.23858 18 5 18H14C17.3137 18 20 15.3137 20 12C20 10.3213 19.3106 8.80369 18.1996 7.71471C18.706 6.93293 19 6.00081 19 5C19 2.23858 16.7614 0 14 0C12.3312 0 10.8533 0.817555 9.94511 2.07399ZM5 8C5 5.79086 6.79086 4 9 4C10.9343 4 12.5499 5.37395 12.9201 7.19971C13.0161 7.67312 13.4368 8.01024 13.9198 8.00079C13.9465 8.00026 13.9732 8 14 8C16.2091 8 18 9.79086 18 12C18 14.2091 16.2091 16 14 16H5C3.34315 16 2 14.6569 2 13C2 11.571 3.00015 10.3732 4.33958 10.0727C4.8783 9.95187 5.21716 9.41729 5.09656 8.87852C5.03348 8.59674 5 8.30288 5 8Z" fill="#20FFAF"/>
</svg>
