<svg width="16" height="20" viewBox="0 0 16 20" fill="none" xmlns="http://www.w3.org/2000/svg">
<path d="M8.65079 0.240823C8.2763 -0.0801687 7.72331 -0.0798387 7.34882 0.241153L7.26036 0.318324C7.20552 0.366633 7.12656 0.436889 7.02692 0.527375C6.82772 0.708282 6.54544 0.970447 6.20771 1.30013C5.5335 1.95829 4.63218 2.89153 3.72807 3.98937C2.8264 5.08425 1.90543 6.36273 1.206 7.71164C0.511056 9.05188 0 10.5279 0 12.0001C0 16.4184 3.58172 20.0001 8 20.0001C12.4183 20.0001 16 16.4184 16 12.0001C16 10.5279 15.4889 9.05188 14.794 7.71164C14.0946 6.36273 13.1736 5.08425 12.2719 3.98937C11.3678 2.89153 10.4665 1.95829 9.79229 1.30013C9.45456 0.970447 9.17228 0.708282 8.97308 0.527375L8.65079 0.240823ZM2 12.0001C2 10.9722 2.36394 9.82328 2.9815 8.63227C3.59457 7.44993 4.4236 6.29091 5.27193 5.26079C6.11782 4.23363 6.9665 3.35437 7.60479 2.73128C7.7483 2.59119 7.88086 2.46434 8 2.352C8.11914 2.46434 8.2517 2.59119 8.39521 2.73128C9.0335 3.35437 9.88218 4.23363 10.7281 5.26079C11.5764 6.29091 12.4054 7.44993 13.0185 8.63227C13.6361 9.82328 14 10.9722 14 12.0001C14 15.3138 11.3137 18.0001 8 18.0001C4.68629 18.0001 2 15.3138 2 12.0001Z" fill="#20FFAF"/>
<path d="M4.35964 12.0416C3.8303 12.1992 3.52889 12.756 3.68643 13.2853C4.11874 14.7379 5.26213 15.8813 6.7147 16.3136C7.24404 16.4711 7.80086 16.1697 7.9584 15.6404C8.11594 15.1111 7.81453 14.5542 7.2852 14.3967C6.47998 14.1571 5.84298 13.5201 5.60334 12.7148C5.4458 12.1855 4.88897 11.8841 4.35964 12.0416Z" fill="#20FFAF"/>
</svg>
