<svg width="20" height="14" viewBox="0 0 20 14" fill="none" xmlns="http://www.w3.org/2000/svg">
<path d="M9 1C9 0.447715 9.44771 0 10 0H19C19.5523 0 20 0.447715 20 1C20 1.55228 19.5523 2 19 2H10C9.44771 2 9 1.55228 9 1ZM0 5C0 4.44772 0.447715 4 1 4H12C12.5523 4 13 4.44772 13 5C13 5.55228 12.5523 6 12 6H1C0.447715 6 0 5.55228 0 5ZM3 8C2.44772 8 2 8.44771 2 9C2 9.55229 2.44772 10 3 10H12C12.5523 10 13 9.55229 13 9C13 8.44771 12.5523 8 12 8H3ZM15 8C14.4477 8 14 8.44771 14 9C14 9.55229 14.4477 10 15 10H19C19.5523 10 20 9.55229 20 9C20 8.44771 19.5523 8 19 8H15ZM15 4C14.4477 4 14 4.44772 14 5C14 5.55228 14.4477 6 15 6H17C17.5523 6 18 5.55228 18 5C18 4.44772 17.5523 4 17 4H15ZM5 13C5 12.4477 5.44772 12 6 12H17C17.5523 12 18 12.4477 18 13C18 13.5523 17.5523 14 17 14H6C5.44772 14 5 13.5523 5 13ZM1 12C0.447715 12 0 12.4477 0 13C0 13.5523 0.447715 14 1 14H3C3.55228 14 4 13.5523 4 13C4 12.4477 3.55228 12 3 12H1ZM3 0C2.44772 0 2 0.447715 2 1C2 1.55228 2.44772 2 3 2H7C7.55228 2 8 1.55228 8 1C8 0.447715 7.55228 0 7 0H3Z" fill="#20FFAF"/>
</svg>
