<svg width="24" height="24" viewBox="0 0 24 24" fill="none" xmlns="http://www.w3.org/2000/svg">
<path d="M11 6C11 5.44772 11.4477 5 12 5H21C21.5523 5 22 5.44772 22 6C22 6.55228 21.5523 7 21 7H12C11.4477 7 11 6.55228 11 6ZM2 10C2 9.44772 2.44772 9 3 9H14C14.5523 9 15 9.44772 15 10C15 10.5523 14.5523 11 14 11H3C2.44772 11 2 10.5523 2 10ZM5 13C4.44772 13 4 13.4477 4 14C4 14.5523 4.44772 15 5 15H14C14.5523 15 15 14.5523 15 14C15 13.4477 14.5523 13 14 13H5ZM17 13C16.4477 13 16 13.4477 16 14C16 14.5523 16.4477 15 17 15H21C21.5523 15 22 14.5523 22 14C22 13.4477 21.5523 13 21 13H17ZM17 9C16.4477 9 16 9.44772 16 10C16 10.5523 16.4477 11 17 11H19C19.5523 11 20 10.5523 20 10C20 9.44772 19.5523 9 19 9H17ZM7 18C7 17.4477 7.44772 17 8 17H19C19.5523 17 20 17.4477 20 18C20 18.5523 19.5523 19 19 19H8C7.44772 19 7 18.5523 7 18ZM3 17C2.44772 17 2 17.4477 2 18C2 18.5523 2.44772 19 3 19H5C5.55228 19 6 18.5523 6 18C6 17.4477 5.55228 17 5 17H3ZM5 5C4.44772 5 4 5.44772 4 6C4 6.55228 4.44772 7 5 7H9C9.55228 7 10 6.55228 10 6C10 5.44772 9.55228 5 9 5H5Z" fill="#20FFAF"/>
</svg>
