<svg width="20" height="20" viewBox="0 0 20 20" fill="none" xmlns="http://www.w3.org/2000/svg">
<path d="M9 0C5.68629 0 3 2.68629 3 6C3 6.13781 3.00466 6.27465 3.01385 6.41034C1.24073 7.1787 0 8.94357 0 11C0 12.4935 0.656074 13.835 1.69244 14.7497C2.10651 15.1152 2.73845 15.0758 3.10391 14.6617C3.46938 14.2477 3.42998 13.6157 3.01591 13.2503C2.39144 12.6991 2 11.8959 2 11C2 9.57096 3.00015 8.37316 4.33958 8.07271C4.8783 7.95187 5.21716 7.41729 5.09656 6.87852C5.03348 6.59674 5 6.30288 5 6C5 3.79086 6.79086 2 9 2C10.9343 2 12.5499 3.37395 12.9201 5.19971C13.0161 5.67312 13.4368 6.01024 13.9198 6.00079C13.9465 6.00026 13.9732 6 14 6C16.2091 6 18 7.79086 18 10C18 11.3078 17.3734 12.469 16.3998 13.2005C15.9583 13.5323 15.8693 14.1591 16.201 14.6007C16.5327 15.0422 17.1596 15.1312 17.6012 14.7995C19.0559 13.7065 20 11.9634 20 10C20 6.91321 17.669 4.37085 14.6713 4.03713C13.858 1.68745 11.627 0 9 0ZM10.9487 13.3163C11.1233 12.7923 10.8402 12.226 10.3162 12.0513C9.79228 11.8767 9.22596 12.1599 9.05131 12.6838L7.05131 18.6838C6.87667 19.2077 7.15983 19.7741 7.68377 19.9487C8.20771 20.1234 8.77403 19.8402 8.94868 19.3163L10.9487 13.3163ZM14.3162 11.0513C14.8402 11.226 15.1233 11.7923 14.9487 12.3163L12.9487 18.3163C12.774 18.8402 12.2077 19.1234 11.6838 18.9487C11.1598 18.7741 10.8767 18.2077 11.0513 17.6838L13.0513 11.6838C13.226 11.1599 13.7923 10.8767 14.3162 11.0513ZM7.44868 12.3163C7.62333 11.7923 7.34017 11.226 6.81622 11.0513C6.29228 10.8767 5.72596 11.1599 5.55131 11.6838L3.55131 17.6838C3.37667 18.2077 3.65983 18.7741 4.18377 18.9487C4.70771 19.1234 5.27403 18.8402 5.44868 18.3163L7.44868 12.3163Z" fill="#20FFAF"/>
</svg>
