<svg width="24" height="24" viewBox="0 0 24 24" fill="none" xmlns="http://www.w3.org/2000/svg">
<path d="M11 2C7.68629 2 5 4.68629 5 8C5 8.13781 5.00466 8.27465 5.01385 8.41034C3.24073 9.1787 2 10.9436 2 13C2 14.4935 2.65607 15.835 3.69244 16.7497C4.10651 17.1152 4.73845 17.0758 5.10391 16.6617C5.46938 16.2477 5.42998 15.6157 5.01591 15.2503C4.39144 14.6991 4 13.8959 4 13C4 11.571 5.00015 10.3732 6.33958 10.0727C6.8783 9.95187 7.21716 9.41729 7.09656 8.87852C7.03348 8.59674 7 8.30288 7 8C7 5.79086 8.79086 4 11 4C12.9343 4 14.5499 5.37395 14.9201 7.19971C15.0161 7.67312 15.4368 8.01024 15.9198 8.00079C15.9465 8.00026 15.9732 8 16 8C18.2091 8 20 9.79086 20 12C20 13.3078 19.3734 14.469 18.3998 15.2005C17.9583 15.5323 17.8693 16.1591 18.201 16.6007C18.5327 17.0422 19.1596 17.1312 19.6012 16.7995C21.0559 15.7065 22 13.9634 22 12C22 8.91321 19.669 6.37085 16.6713 6.03713C15.858 3.68745 13.627 2 11 2ZM12.9487 15.3163C13.1233 14.7923 12.8402 14.226 12.3162 14.0513C11.7923 13.8767 11.226 14.1599 11.0513 14.6838L9.05131 20.6838C8.87667 21.2077 9.15983 21.7741 9.68377 21.9487C10.2077 22.1234 10.774 21.8402 10.9487 21.3163L12.9487 15.3163ZM16.3162 13.0513C16.8402 13.226 17.1233 13.7923 16.9487 14.3163L14.9487 20.3163C14.774 20.8402 14.2077 21.1234 13.6838 20.9487C13.1598 20.7741 12.8767 20.2077 13.0513 19.6838L15.0513 13.6838C15.226 13.1599 15.7923 12.8767 16.3162 13.0513ZM9.44868 14.3163C9.62333 13.7923 9.34017 13.226 8.81622 13.0513C8.29228 12.8767 7.72596 13.1599 7.55131 13.6838L5.55131 19.6838C5.37667 20.2077 5.65983 20.7741 6.18377 20.9487C6.70771 21.1234 7.27403 20.8402 7.44868 20.3163L9.44868 14.3163Z" fill="#20FFAF"/>
</svg>
