<svg width="24" height="24" viewBox="0 0 24 24" fill="none" xmlns="http://www.w3.org/2000/svg">
<path d="M11 2C7.68629 2 5 4.68629 5 8C5 8.13781 5.00466 8.27465 5.01385 8.41034C3.24073 9.1787 2 10.9436 2 13C2 14.4935 2.65607 15.835 3.69244 16.7497C4.10651 17.1152 4.73845 17.0758 5.10391 16.6617C5.46938 16.2477 5.42998 15.6157 5.01591 15.2503C4.39144 14.6991 4 13.8959 4 13C4 11.571 5.00015 10.3732 6.33958 10.0727C6.8783 9.95187 7.21716 9.41729 7.09656 8.87852C7.03348 8.59674 7 8.30288 7 8C7 5.79086 8.79086 4 11 4C12.9343 4 14.5499 5.37395 14.9201 7.19971C15.0161 7.67312 15.4368 8.01024 15.9198 8.00079C15.9465 8.00026 15.9732 8 16 8C18.2091 8 20 9.79086 20 12C20 13.3078 19.3734 14.469 18.3998 15.2005C17.9583 15.5323 17.8693 16.1591 18.201 16.6007C18.5327 17.0422 19.1596 17.1312 19.6012 16.7995C21.0559 15.7065 22 13.9634 22 12C22 8.91321 19.669 6.37085 16.6713 6.03713C15.858 3.68745 13.627 2 11 2ZM14.5 17C15.3284 17 16 16.3284 16 15.5C16 14.6716 15.3284 14 14.5 14C13.6716 14 13 14.6716 13 15.5C13 16.3284 13.6716 17 14.5 17ZM11 16.5C11 17.3284 10.3284 18 9.5 18C8.67157 18 8 17.3284 8 16.5C8 15.6716 8.67157 15 9.5 15C10.3284 15 11 15.6716 11 16.5ZM15 19.5C15 20.3284 14.3284 21 13.5 21C12.6716 21 12 20.3284 12 19.5C12 18.6716 12.6716 18 13.5 18C14.3284 18 15 18.6716 15 19.5ZM10 20.5C10 21.3284 9.32843 22 8.5 22C7.67157 22 7 21.3284 7 20.5C7 19.6716 7.67157 19 8.5 19C9.32843 19 10 19.6716 10 20.5Z" fill="#20FFAF"/>
</svg>
