<svg width="20" height="20" viewBox="0 0 20 20" fill="none" xmlns="http://www.w3.org/2000/svg">
<path d="M11 1C11 0.447715 10.5523 0 10 0C9.44771 0 9 0.447715 9 1V3.58582L7.05023 1.63605C6.65971 1.24552 6.02654 1.24552 5.63602 1.63605C5.24549 2.02657 5.24549 2.65973 5.63602 3.05026L9 6.41424V9H6.41418L3.05023 5.63605C2.65971 5.24552 2.02654 5.24552 1.63602 5.63605C1.24549 6.02657 1.24549 6.65973 1.63602 7.05026L3.58576 9H1C0.447716 9 0 9.44771 0 10C0 10.5523 0.447716 11 1 11H3.58576L1.63603 12.9497C1.24551 13.3402 1.24551 13.9734 1.63603 14.3639C2.02656 14.7545 2.65972 14.7545 3.05025 14.3639L6.41419 11H9V13.5858L5.63603 16.9497C5.24551 17.3402 5.24551 17.9734 5.63603 18.3639C6.02656 18.7545 6.65972 18.7545 7.05025 18.3639L9 16.4142V19C9 19.5523 9.44771 20 10 20C10.5523 20 11 19.5523 11 19V16.4141L12.9497 18.3638C13.3402 18.7544 13.9734 18.7544 14.3639 18.3638C14.7545 17.9733 14.7545 17.3402 14.3639 16.9496L11 13.5857V11H13.5859L16.9497 14.3638C17.3402 14.7544 17.9734 14.7544 18.3639 14.3638C18.7545 13.9733 18.7545 13.3402 18.3639 12.9496L16.4143 11H19C19.5523 11 20 10.5523 20 10C20 9.44771 19.5523 9 19 9H16.4143L18.3639 7.05037C18.7545 6.65984 18.7545 6.02668 18.3639 5.63616C17.9734 5.24563 17.3403 5.24563 16.9497 5.63615L13.5859 9H11V6.41431L14.364 3.05035C14.7545 2.65983 14.7545 2.02666 14.364 1.63614C13.9734 1.24561 13.3403 1.24561 12.9497 1.63614L11 3.58588V1Z" fill="#20FFAF"/>
</svg>
