<svg width="20" height="20" viewBox="0 0 20 20" fill="none" xmlns="http://www.w3.org/2000/svg">
<path d="M9 0C5.68629 0 3 2.68629 3 6C3 6.13781 3.00466 6.27465 3.01385 6.41034C1.24073 7.1787 0 8.94357 0 11C0 12.4935 0.656074 13.835 1.69244 14.7497C2.10651 15.1152 2.73845 15.0758 3.10391 14.6617C3.46938 14.2477 3.42998 13.6157 3.01591 13.2503C2.39144 12.6991 2 11.8959 2 11C2 9.57096 3.00015 8.37315 4.33958 8.07271C4.8783 7.95187 5.21716 7.41729 5.09656 6.87852C5.03348 6.59674 5 6.30288 5 6C5 3.79086 6.79086 2 9 2C10.9343 2 12.5499 3.37395 12.9201 5.19971C13.0161 5.67312 13.4368 6.01024 13.9198 6.00079C13.9465 6.00026 13.9732 6 14 6C16.2091 6 18 7.79086 18 10C18 11.3078 17.3734 12.469 16.3998 13.2005C15.9583 13.5323 15.8693 14.1591 16.201 14.6007C16.5327 15.0422 17.1596 15.1312 17.6012 14.7995C19.0559 13.7065 20 11.9634 20 10C20 6.91321 17.669 4.37085 14.6713 4.03713C13.858 1.68745 11.627 0 9 0ZM12.5 15C13.3284 15 14 14.3284 14 13.5C14 12.6716 13.3284 12 12.5 12C11.6716 12 11 12.6716 11 13.5C11 14.3284 11.6716 15 12.5 15ZM9 14.5C9 15.3284 8.32843 16 7.5 16C6.67157 16 6 15.3284 6 14.5C6 13.6716 6.67157 13 7.5 13C8.32843 13 9 13.6716 9 14.5ZM13 17.5C13 18.3284 12.3284 19 11.5 19C10.6716 19 10 18.3284 10 17.5C10 16.6716 10.6716 16 11.5 16C12.3284 16 13 16.6716 13 17.5ZM8 18.5C8 19.3284 7.32843 20 6.5 20C5.67157 20 5 19.3284 5 18.5C5 17.6716 5.67157 17 6.5 17C7.32843 17 8 17.6716 8 18.5Z" fill="#20FFAF"/>
</svg>
