<svg width="20" height="20" viewBox="0 0 20 20" fill="none" xmlns="http://www.w3.org/2000/svg">
<path d="M9 0C5.68629 0 3 2.68629 3 6C3 6.13781 3.00466 6.27465 3.01385 6.41034C1.24073 7.1787 0 8.94357 0 11C0 13.3312 1.59442 15.2874 3.75074 15.8424C4.28559 15.9801 4.83078 15.6581 4.96844 15.1232C5.1061 14.5884 4.78411 14.0432 4.24926 13.9055C2.95512 13.5725 2 12.3965 2 11C2 9.57096 3.00015 8.37315 4.33958 8.07271C4.8783 7.95187 5.21716 7.41729 5.09656 6.87852C5.03348 6.59674 5 6.30288 5 6C5 3.79086 6.79086 2 9 2C10.9343 2 12.5499 3.37395 12.9201 5.19971C13.0161 5.67312 13.4368 6.01024 13.9198 6.00079C13.9465 6.00026 13.9732 6 14 6C16.2091 6 18 7.79086 18 10C18 11.6387 17.0144 13.0494 15.5996 13.6676C15.0935 13.8887 14.8625 14.4782 15.0836 14.9843C15.3048 15.4904 15.8943 15.7214 16.4004 15.5003C18.5174 14.5754 20 12.4619 20 10C20 6.91321 17.669 4.37085 14.6713 4.03713C13.858 1.68745 11.627 0 9 0ZM10.8944 11.4472C11.1414 10.9532 10.9412 10.3526 10.4472 10.1056C9.95324 9.85858 9.35256 10.0588 9.10557 10.5528L7.10557 14.5528C6.95058 14.8628 6.96714 15.2309 7.14935 15.5257C7.33156 15.8205 7.65342 16 8 16H10.382L9.10557 18.5528C8.85858 19.0468 9.05881 19.6474 9.55279 19.8944C10.0468 20.1414 10.6474 19.9412 10.8944 19.4472L12.8944 15.4472C13.0494 15.1372 13.0329 14.7691 12.8507 14.4743C12.6684 14.1795 12.3466 14 12 14H9.61803L10.8944 11.4472Z" fill="#20FFAF"/>
</svg>
