<svg width="20" height="19" viewBox="0 0 20 19" fill="none" xmlns="http://www.w3.org/2000/svg">
<path fill-rule="evenodd" clip-rule="evenodd" d="M10.7071 0.292893C10.3166 -0.0976311 9.68342 -0.0976311 9.29289 0.292893L7.29289 2.29289C6.90237 2.68342 6.90237 3.31658 7.29289 3.70711C7.68342 4.09763 8.31658 4.09763 8.70711 3.70711L9 3.41421V6.14286C9 6.61624 9.44771 7 10 7C10.5523 7 11 6.61624 11 6.14286V3.41421L11.2929 3.70711C11.6834 4.09763 12.3166 4.09763 12.7071 3.70711C13.0976 3.31658 13.0976 2.68342 12.7071 2.29289L10.7071 0.292893ZM3.63603 9.05012C4.02656 9.44065 4.65972 9.44065 5.05025 9.05012C5.44077 8.6596 5.44077 8.02643 5.05025 7.63591L4.34314 6.9288C3.95262 6.53828 3.31945 6.53828 2.92893 6.9288C2.5384 7.31933 2.5384 7.95249 2.92893 8.34302L3.63603 9.05012ZM17.0711 8.34324L16.364 9.05035C15.9735 9.44088 15.3403 9.44088 14.9498 9.05035C14.5593 8.65983 14.5593 8.02666 14.9498 7.63614L15.6569 6.92903C16.0474 6.53851 16.6806 6.53851 17.0711 6.92903C17.4616 7.31955 17.4616 7.95272 17.0711 8.34324ZM6 14C6 11.7909 7.79086 10 10 10C12.2091 10 14 11.7909 14 14C14 15.194 13.4777 16.2659 12.6459 17H7.35412C6.5223 16.2659 6 15.194 6 14ZM6.97005 19C6.98952 19.0006 7.00899 19.0006 7.02842 19H12.9716C12.991 19.0006 13.0105 19.0006 13.0299 19H19C19.5523 19 20 18.5523 20 18C20 17.4477 19.5523 17 19 17H15.1971C15.7074 16.1177 16 15.093 16 14C16 10.6863 13.3137 8 10 8C6.68629 8 4 10.6863 4 14C4 15.093 4.29257 16.1177 4.80293 17H1C0.447715 17 0 17.4477 0 18C0 18.5523 0.447715 19 1 19H6.97005ZM2 15C2.55228 15 3 14.5523 3 14C3 13.4477 2.55228 13 2 13H1C0.447715 13 0 13.4477 0 14C0 14.5523 0.447715 15 1 15H2ZM20 14C20 14.5523 19.5523 15 19 15H18C17.4477 15 17 14.5523 17 14C17 13.4477 17.4477 13 18 13H19C19.5523 13 20 13.4477 20 14Z" fill="#20FFAF"/>
</svg>
