<svg width="20" height="15" viewBox="0 0 20 15" fill="none" xmlns="http://www.w3.org/2000/svg">
<path d="M11 1C11 0.447715 10.5523 0 10 0C9.44771 0 9 0.447715 9 1V2C9 2.55228 9.44771 3 10 3C10.5523 3 11 2.55228 11 2V1Z" fill="#20FFAF"/>
<path d="M7.02842 15C7.00899 15.0006 6.98952 15.0006 6.97006 15H1C0.447715 15 0 14.5523 0 14C0 13.4477 0.447715 13 1 13H4.80293C4.29257 12.1177 4 11.093 4 10C4 6.68629 6.68629 4 10 4C13.3137 4 16 6.68629 16 10C16 11.093 15.7074 12.1177 15.1971 13H19C19.5523 13 20 13.4477 20 14C20 14.5523 19.5523 15 19 15H13.0299C13.0105 15.0006 12.991 15.0006 12.9716 15H7.02842ZM10 6C7.79086 6 6 7.79086 6 10C6 11.194 6.5223 12.2659 7.35412 13H12.6459C13.4777 12.2659 14 11.194 14 10C14 7.79086 12.2091 6 10 6Z" fill="#20FFAF"/>
<path d="M17.0711 4.34315L16.364 5.05026C15.9735 5.44078 15.3403 5.44079 14.9498 5.05026C14.5593 4.65974 14.5593 4.02657 14.9498 3.63605L15.6569 2.92894C16.0474 2.53842 16.6806 2.53842 17.0711 2.92894C17.4616 3.31946 17.4616 3.95263 17.0711 4.34315Z" fill="#20FFAF"/>
<path d="M2 11C2.55228 11 3 10.5523 3 10C3 9.44771 2.55228 9 2 9H1C0.447715 9 0 9.44771 0 10C0 10.5523 0.447715 11 1 11H2Z" fill="#20FFAF"/>
<path d="M20 10C20 10.5523 19.5523 11 19 11H18C17.4477 11 17 10.5523 17 10C17 9.44771 17.4477 9 18 9H19C19.5523 9 20 9.44771 20 10Z" fill="#20FFAF"/>
<path d="M3.63603 5.05025C4.02656 5.44077 4.65972 5.44077 5.05025 5.05025C5.44077 4.65972 5.44077 4.02656 5.05025 3.63603L4.34314 2.92893C3.95262 2.5384 3.31945 2.5384 2.92893 2.92893C2.5384 3.31945 2.5384 3.95262 2.92893 4.34314L3.63603 5.05025Z" fill="#20FFAF"/>
</svg>
