<svg width="20" height="19" viewBox="0 0 20 19" fill="none" xmlns="http://www.w3.org/2000/svg">
<path fill-rule="evenodd" clip-rule="evenodd" d="M6 14.0001C6 11.7909 7.79086 10.0001 10 10.0001C12.2091 10.0001 14 11.7909 14 14.0001C14 15.1941 13.4777 16.2659 12.6459 17.0001L7.35412 17.0001C6.5223 16.2659 6 15.1941 6 14.0001ZM6.97006 19.0001C6.98952 19.0006 7.00898 19.0006 7.02842 19.0001L12.9716 19.0001C12.991 19.0006 13.0105 19.0006 13.0299 19.0001L19 19.0001C19.5523 19.0001 20 18.5523 20 18.0001C20 17.4478 19.5523 17.0001 19 17.0001L15.1971 17.0001C15.7074 16.1178 16 15.093 16 14.0001C16 10.6864 13.3137 8.00006 10 8.00006C6.68629 8.00006 4 10.6864 4 14.0001C4 15.093 4.29257 16.1178 4.80293 17.0001L1 17.0001C0.447716 17.0001 1.35742e-07 17.4478 8.74598e-08 18.0001C3.91775e-08 18.5523 0.447716 19.0001 1 19.0001L6.97006 19.0001ZM17.0711 6.92909C17.4616 7.31962 17.4616 7.95278 17.0711 8.34331L16.364 9.05041C15.9735 9.44094 15.3403 9.44094 14.9498 9.05041C14.5593 8.65989 14.5593 8.02672 14.9498 7.6362L15.6569 6.92909C16.0474 6.53857 16.6806 6.53857 17.0711 6.92909ZM2 15.0001C2.55228 15.0001 3 14.5523 3 14.0001C3 13.4478 2.55228 13.0001 2 13.0001L1 13.0001C0.447716 13.0001 4.85433e-07 13.4478 4.37151e-07 14.0001C3.88869e-07 14.5523 0.447716 15.0001 1 15.0001L2 15.0001ZM20 14.0001C20 14.5523 19.5523 15.0001 19 15.0001L18 15.0001C17.4477 15.0001 17 14.5523 17 14.0001C17 13.4478 17.4477 13.0001 18 13.0001L19 13.0001C19.5523 13.0001 20 13.4478 20 14.0001ZM3.63603 9.05043C4.02656 9.44096 4.65972 9.44096 5.05025 9.05043C5.44077 8.65991 5.44077 8.02674 5.05025 7.63622L4.34314 6.92911C3.95262 6.53859 3.31945 6.53859 2.92893 6.92911C2.5384 7.31963 2.5384 7.9528 2.92893 8.34332L3.63603 9.05043ZM11 3.58585L11 1.00006C11 0.447778 10.5523 6.40239e-05 10 6.39756e-05C9.44772 6.39273e-05 9 0.447778 9 1.00006L9 3.58585L8.70711 3.29296C8.31658 2.90243 7.68342 2.90243 7.29289 3.29296C6.90237 3.68348 6.90237 4.31664 7.29289 4.70717L9.2918 6.70608C9.29518 6.70947 9.29858 6.71283 9.30201 6.71617C9.48221 6.89184 9.72847 7.00006 10 7.00006C10.1367 7.00006 10.2669 6.97265 10.3856 6.92301C10.4988 6.87578 10.605 6.80684 10.698 6.71617C10.7014 6.71283 10.7048 6.70947 10.7082 6.70608L12.7071 4.70717C13.0976 4.31665 13.0976 3.68348 12.7071 3.29296C12.3166 2.90243 11.6834 2.90243 11.2929 3.29296L11 3.58585Z" fill="#20FFAF"/>
</svg>
