<svg width="10" height="20" viewBox="0 0 10 20" fill="none" xmlns="http://www.w3.org/2000/svg">
<path d="M2 3C2 1.34315 3.34315 0 5 0C6.65685 0 8 1.34315 8 3V10.9998C9.21298 11.9109 10 13.3631 10 15C10 17.7614 7.76142 20 5 20C2.23858 20 0 17.7614 0 15C0 13.3631 0.78702 11.9109 2 10.9998V3ZM5 2C4.44772 2 4 2.44772 4 3V11.5351C4 11.8921 3.80972 12.222 3.50073 12.4007C2.60141 12.921 2 13.8908 2 15C2 16.6569 3.34315 18 5 18C6.65685 18 8 16.6569 8 15C8 13.8908 7.39859 12.921 6.49927 12.4007C6.19028 12.222 6 11.8921 6 11.5351V3C6 2.44772 5.55228 2 5 2Z" fill="#20FFAF"/>
</svg>
