<svg width="20" height="14" viewBox="0 0 20 14" fill="none" xmlns="http://www.w3.org/2000/svg">
<path d="M16.8061 7.91873C17.1275 7.85297 17.4348 7.74867 17.7231 7.61087C19.0698 6.9671 20 5.59219 20 4C20 1.79086 18.2092 0 16 0C14.8153 0 13.7498 0.516351 13.0188 1.33309C12.6505 1.74461 12.6855 2.37681 13.097 2.74513C13.5085 3.11346 14.1407 3.07844 14.5091 2.66691C14.8767 2.25616 15.4078 2.00001 16 2C16.069 2 16.1373 2.0035 16.2045 2.01033C16.4734 2.03764 16.7266 2.11823 16.9533 2.24139C17.5768 2.58007 18 3.24061 18 4C18 4.82843 17.4963 5.53921 16.7785 5.84283C16.5392 5.94403 16.2762 5.99999 16.0001 6H16H1C0.447715 6 0 6.44772 0 7C0 7.55228 0.447715 8 1 8H16H16C16.2762 8 16.5458 7.97201 16.8061 7.91873ZM3 5H8.5H8.50002L8.51617 4.99995C8.59695 4.99944 8.67682 4.99509 8.75561 4.98709C10.0163 4.85908 11 3.79442 11 2.5C11 1.11929 9.88073 0 8.5 0C7.75951 0 7.09317 0.323226 6.63683 0.833086C6.26851 1.24461 6.30353 1.87681 6.71505 2.24513C7.12658 2.61346 7.75878 2.57844 8.1271 2.16691C8.22008 2.06303 8.35202 2.00001 8.5 2C8.77614 2 9 2.22386 9 2.5C9 2.77614 8.77615 2.99999 8.50002 3H8.5H3C2.44772 3 2 3.44772 2 4C2 4.55228 2.44772 5 3 5ZM14.5 9L6 9C5.44771 9 5 9.44772 5 10C5 10.5523 5.44771 11 6 11L14.5 11C14.7762 11 15 11.2239 15 11.5C15 11.7761 14.7761 12 14.5 12C14.352 12 14.2201 11.937 14.1271 11.8331C13.7588 11.4216 13.1266 11.3865 12.7151 11.7549C12.3035 12.1232 12.2685 12.7554 12.6368 13.1669C13.0932 13.6768 13.7595 14 14.5 14C15.8807 14 17 12.8807 17 11.5C17 10.2056 16.0163 9.14092 14.7556 9.01291C14.6768 9.0049 14.5969 9.00056 14.5162 9.00005L14.5 9Z" fill="#20FFAF"/>
</svg>
