<svg width="20" height="21" viewBox="0 0 20 21" fill="none" xmlns="http://www.w3.org/2000/svg">
<path fill-rule="evenodd" clip-rule="evenodd" d="M3.499 5.76562C2.671 5.76562 2 5.09263 2 4.26562C2 3.43762 2.671 2.76562 3.499 2.76562C4.327 2.76562 4.999 3.43762 4.999 4.26562C4.999 5.09263 4.327 5.76562 3.499 5.76562ZM8.999 0.765625H0V9.76562C0 10.3176 0.225 10.8166 0.587 11.1806L9.59 20.1786C9.951 20.5406 10.451 20.7656 11.004 20.7656C11.557 20.7656 12.057 20.5416 12.418 20.1806L19.412 13.1856C19.775 12.8236 20 12.3216 20 11.7696C20 11.2166 19.777 10.7156 19.413 10.3556L10.415 1.35062C10.051 0.990625 9.552 0.765625 8.999 0.765625Z" fill="white"/>
</svg>
