<svg width="22" height="18" viewBox="0 0 22 18" fill="none" xmlns="http://www.w3.org/2000/svg">
<path d="M18.463 2.57573C17.7758 1.82597 16.5346 1.77977 15.7073 2.60711L7.6073 10.7071C7.39783 10.9166 7.39783 11.1834 7.6073 11.3929C7.81678 11.6024 8.08361 11.6024 8.29309 11.3929L14.9931 4.6929C15.3836 4.30238 16.0168 4.30238 16.4073 4.6929C16.7978 5.08342 16.7978 5.71659 16.4073 6.10711L9.7073 12.8071C8.71678 13.7976 7.18361 13.7976 6.19309 12.8071C5.20256 11.8166 5.20256 10.2834 6.19309 9.2929L14.2931 1.1929C15.8606 -0.374632 18.408 -0.425638 19.9225 1.20821C21.4748 2.77662 21.5205 5.31157 19.8931 6.82133L10.4073 16.3071C8.21678 18.4976 4.78361 18.4976 2.59309 16.3071C0.402564 14.1166 0.402564 10.6834 2.59309 8.4929L10.6931 0.3929C11.0836 0.00237539 11.7168 0.00237539 12.1073 0.3929C12.4978 0.783424 12.4978 1.41659 12.1073 1.80711L4.0073 9.90711C2.59783 11.3166 2.59783 13.4834 4.0073 14.8929C5.41678 16.3024 7.58361 16.3024 8.99309 14.8929L18.4931 5.3929C18.5033 5.38266 18.5138 5.37264 18.5245 5.36285C19.2742 4.67557 19.3204 3.43446 18.4931 2.60711C18.4828 2.59687 18.4728 2.58641 18.463 2.57573Z" fill="white"/>
</svg>
