<svg width="20" height="19" viewBox="0 0 20 19" fill="none" xmlns="http://www.w3.org/2000/svg">
<path d="M9 2C6.79082 2 5 3.79085 5 6C5 6.03242 5.00047 6.06627 5.00131 6.10224C5.01219 6.56727 4.70099 6.97839 4.25047 7.09416C2.95577 7.42685 2 8.60311 2 10C2 11.6569 3.34317 13 5 13H6C6.55228 13 7 13.4477 7 14C7 14.5523 6.55228 15 6 15H5C2.23861 15 0 12.7614 0 10C0 7.93746 1.2482 6.16845 3.02926 5.40373C3.32856 2.36995 5.88746 0 9 0C11.2236 0 13.1629 1.20934 14.199 3.00324C17.4207 3.10823 20 5.75289 20 9C20 12.3137 17.3138 15 14 15C13.4477 15 13 14.5523 13 14C13 13.4477 13.4477 13 14 13C16.2092 13 18 11.2091 18 9C18 6.79085 16.2092 5 14 5C13.8893 5 13.78 5.00447 13.6718 5.01322C13.2449 5.04776 12.8434 4.8066 12.6734 4.4135C12.0584 2.99174 10.6439 2 9 2ZM9.29289 7.29289C9.68342 6.90237 10.3166 6.90237 10.7071 7.29289L12.7071 9.29289C13.0976 9.68342 13.0976 10.3166 12.7071 10.7071C12.3166 11.0976 11.6834 11.0976 11.2929 10.7071L11 10.4142V18C11 18.5523 10.5523 19 10 19C9.44771 19 9 18.5523 9 18V10.4142L8.70711 10.7071C8.31658 11.0976 7.68342 11.0976 7.29289 10.7071C6.90237 10.3166 6.90237 9.68342 7.29289 9.29289L9.29289 7.29289Z" fill="#20FFAF"/>
</svg>
