<svg width="20" height="20" viewBox="0 0 20 20" fill="none" xmlns="http://www.w3.org/2000/svg">
<path d="M15 0C14.4477 0 14 0.447715 14 1C14 1.55228 14.4477 2 15 2L16.5858 2L12.2929 6.29289C11.9024 6.68342 11.9024 7.31658 12.2929 7.70711C12.6834 8.09763 13.3166 8.09763 13.7071 7.70711L18 3.41422L18 5.00001C18 5.55229 18.4477 6 19 6C19.5523 6 20 5.55229 20 5L20 1C20 0.447715 19.5523 0 19 0H15ZM2 16.5858L2 15C2 14.4477 1.55228 14 1 14C0.447715 14 0 14.4477 0 15L3.42528e-06 19C3.85384e-06 19.5523 0.447718 20 1 20H5C5.55228 20 6 19.5523 6 19C6 18.4477 5.55229 18 5 18H3.41421L7.70711 13.7071C8.09763 13.3166 8.09763 12.6834 7.70711 12.2929C7.31658 11.9024 6.68342 11.9024 6.29289 12.2929L2 16.5858Z" fill="white"/>
</svg>
