<svg width="20" height="12" viewBox="0 0 20 12" fill="none" xmlns="http://www.w3.org/2000/svg">
<path d="M6 2C3.75228 2 2 3.75228 2 6C2 8.24771 3.75228 10 6 10H8C8.55228 10 9 10.4477 9 11C9 11.5523 8.55228 12 8 12H6C2.64772 12 0 9.35228 0 6C0 2.64772 2.64772 0 6 0H8C8.55228 0 9 0.447715 9 1C9 1.55228 8.55228 2 8 2H6ZM11 1C11 0.447715 11.4477 0 12 0H14C17.3523 0 20 2.64772 20 6C20 9.35228 17.3523 12 14 12H12C11.4477 12 11 11.5523 11 11C11 10.4477 11.4477 10 12 10H14C16.2477 10 18 8.24771 18 6C18 3.75228 16.2477 2 14 2H12C11.4477 2 11 1.55228 11 1ZM5 6C5 5.44772 5.44772 5 6 5H14C14.5523 5 15 5.44772 15 6C15 6.55228 14.5523 7 14 7H6C5.44772 7 5 6.55228 5 6Z" fill="white"/>
</svg>
