<svg width="21" height="15" viewBox="0 0 21 15" fill="none" xmlns="http://www.w3.org/2000/svg">
<path d="M14.2 1C14.2 0.447715 14.6477 0 15.2 0C15.8367 0 16.4624 0.127944 17.0714 0.371523C17.7341 0.636609 18.2442 1.03001 18.7071 1.49289C19.17 1.95578 19.5634 2.4659 19.8285 3.12861C20.0721 3.73756 20.2 4.36326 20.2 5C20.2 5.63674 20.0721 6.26244 19.8285 6.87139C19.5667 7.52579 19.1798 8.0314 18.7245 8.48967L17.7399 9.57267C17.7293 9.58441 17.7183 9.59589 17.7071 9.60711L14.5071 12.8071C14.0442 13.27 13.5341 13.6634 12.8714 13.9285C12.2624 14.1721 11.6367 14.3 11 14.3C10.3633 14.3 9.73756 14.1721 9.12861 13.9285C8.4659 13.6634 7.95578 13.27 7.49289 12.8071C7.03 12.3442 6.63661 11.8341 6.37152 11.1714C6.12326 10.5507 6 9.92445 6 9.2C6 8.56326 6.12794 7.93756 6.37152 7.32861C6.63661 6.6659 7.03 6.15578 7.49289 5.69289L8.59289 4.59289C8.98342 4.20237 9.61658 4.20237 10.0071 4.59289C10.3976 4.98342 10.3976 5.61658 10.0071 6.00711L8.90711 7.10711C8.57 7.44422 8.36339 7.7341 8.22848 8.07139C8.07206 8.46244 8 8.83674 8 9.2C8 9.67555 8.07674 10.0493 8.22848 10.4286C8.36339 10.7659 8.57 11.0558 8.90711 11.3929C9.24422 11.73 9.5341 11.9366 9.87139 12.0715C10.2624 12.2279 10.6367 12.3 11 12.3C11.3633 12.3 11.7376 12.2279 12.1286 12.0715C12.4659 11.9366 12.7558 11.73 13.0929 11.3929L16.2761 8.20972L17.2601 7.12733C17.2707 7.11559 17.2817 7.10411 17.2929 7.09289C17.63 6.75578 17.8366 6.4659 17.9715 6.12861C18.1279 5.73756 18.2 5.36326 18.2 5C18.2 4.63674 18.1279 4.26244 17.9715 3.87139C17.8366 3.5341 17.63 3.24422 17.2929 2.90711C16.9558 2.56999 16.6659 2.36339 16.3286 2.22848C15.9376 2.07206 15.5633 2 15.2 2C14.6477 2 14.2 1.55228 14.2 1ZM9.3 2.5C8.93674 2.5 8.56244 2.57206 8.17139 2.72848C7.8341 2.86339 7.54422 3.07 7.20711 3.40711L3.92393 6.69028L2.93994 7.77267C2.92927 7.78441 2.91832 7.79589 2.90711 7.80711C2.57 8.14422 2.36339 8.4341 2.22848 8.77139C2.07206 9.16244 2 9.53674 2 9.9C2 10.2633 2.07206 10.6376 2.22848 11.0286C2.36339 11.3659 2.57 11.6558 2.90711 11.9929C3.24422 12.33 3.5341 12.5366 3.87139 12.6715C4.26244 12.8279 4.63674 12.9 5 12.9C5.55228 12.9 6 13.3477 6 13.9C6 14.4523 5.55228 14.9 5 14.9C4.36326 14.9 3.73756 14.7721 3.12861 14.5285C2.4659 14.2634 1.95578 13.87 1.49289 13.4071C1.03 12.9442 0.636609 12.4341 0.371523 11.7714C0.127944 11.1624 0 10.5367 0 9.9C0 9.26326 0.127944 8.63756 0.371523 8.02861C0.633285 7.37421 1.02016 6.8686 1.47551 6.41033L2.46006 5.32733C2.47073 5.31559 2.48168 5.30411 2.49289 5.29289L5.79289 1.99289C6.25578 1.53 6.7659 1.13661 7.42861 0.871523C8.03756 0.627944 8.66326 0.5 9.3 0.5C9.93674 0.5 10.5624 0.627944 11.1714 0.871523C11.8341 1.13661 12.3442 1.53 12.8071 1.99289C13.27 2.45578 13.6634 2.9659 13.9285 3.62861C14.1721 4.23756 14.3 4.86326 14.3 5.5C14.3 6.13674 14.1721 6.76244 13.9285 7.37139C13.6664 8.02651 13.279 8.53251 12.823 8.99118L11.7372 10.1757C11.364 10.5828 10.7314 10.6103 10.3243 10.2372C9.91716 9.86396 9.88965 9.23139 10.2628 8.82428L11.3628 7.62428C11.3726 7.6136 11.3827 7.60314 11.3929 7.59289C11.73 7.25578 11.9366 6.9659 12.0715 6.62861C12.2279 6.23756 12.3 5.86326 12.3 5.5C12.3 5.13674 12.2279 4.76244 12.0715 4.37139C11.9366 4.0341 11.73 3.74422 11.3929 3.40711C11.0558 3.07 10.7659 2.86339 10.4286 2.72848C10.0376 2.57206 9.66326 2.5 9.3 2.5Z" fill="white"/>
</svg>
