<svg width="14" height="14" viewBox="0 0 14 14" fill="none" xmlns="http://www.w3.org/2000/svg">
<path d="M13.7071 0.292893C14.0976 0.683417 14.0976 1.31658 13.7071 1.70711L8.41421 7L13.7071 12.2929C14.0976 12.6834 14.0976 13.3166 13.7071 13.7071C13.3166 14.0976 12.6834 14.0976 12.2929 13.7071L6.29289 7.70711C5.90237 7.31658 5.90237 6.68342 6.29289 6.29289L12.2929 0.292893C12.6834 -0.0976311 13.3166 -0.0976311 13.7071 0.292893ZM7.70711 0.292894C8.09763 0.683418 8.09763 1.31658 7.70711 1.70711L2.41421 7L7.70711 12.2929C8.09763 12.6834 8.09763 13.3166 7.70711 13.7071C7.31658 14.0976 6.68342 14.0976 6.29289 13.7071L0.292893 7.70711C0.105357 7.51957 0 7.26522 0 7C0 6.73478 0.105357 6.48043 0.292893 6.29289L6.29289 0.292893C6.68342 -0.0976309 7.31658 -0.0976307 7.70711 0.292894Z" fill="#20FFAF"/>
</svg>
